<svg width="264" height="198" viewBox="0 0 264 198" fill="none" xmlns="http://www.w3.org/2000/svg">
<g clip-path="url(#clip0_9_148)">
<path d="M202.524 133.848C202.412 133.848 202.3 133.841 202.188 133.834C202.518 131.74 202.861 129.639 203.316 127.531C203.752 129.561 204.089 131.576 204.405 133.599C203.789 133.757 203.158 133.841 202.524 133.848ZM204.649 135.145C204.636 136.355 204.636 137.566 204.636 138.777C204.636 140.102 204.643 141.434 204.636 142.758V180.813C204.234 183.356 203.844 185.891 203.316 188.427C202.788 185.891 202.399 183.356 201.996 180.813V138.955C201.996 137.687 201.996 136.412 201.983 135.145C202.029 134.86 202.069 134.582 202.115 134.297C202.91 134.398 203.714 134.381 204.504 134.247C204.557 134.546 204.603 134.846 204.649 135.145ZM159.855 70.7874C159.855 70.7874 159.994 71.051 160.264 71.4642L160.251 71.4784L158.311 73.7219C157.519 74.3273 156.727 74.9327 155.875 75.474C156.324 74.5266 156.833 73.6364 157.334 72.7391L158.806 71.051C159.446 70.9086 159.855 70.7874 159.855 70.7874ZM171.452 57.54C170.996 58.4802 170.488 59.3776 169.986 60.2679L168.039 62.5114L167.683 62.9174C167.208 62.7463 166.723 62.6106 166.231 62.5114L167.076 61.5357L169.023 59.2921C169.815 58.6938 170.607 58.0956 171.452 57.54Z" fill="black"/>
<path d="M193.025 74.7946C193.128 74.5478 193.285 74.3323 193.484 74.1674C193.633 74.0465 193.807 73.9679 193.991 73.9387C194.175 73.9115 194.363 73.9362 194.536 74.0106C194.767 74.1106 194.971 74.2724 195.129 74.4809H195.13L195.139 74.4941L195.13 74.5072L195.132 74.5073C195.03 74.7529 194.872 74.9664 194.673 75.1279C194.524 75.2481 194.349 75.3247 194.164 75.35C193.979 75.3736 193.792 75.3467 193.619 75.2717C193.388 75.1681 193.184 75.0042 193.025 74.7946ZM166.141 78.6487L151.699 80.5748C146.885 81.2126 142.069 81.8332 137.251 82.4366C127.615 83.6315 117.985 84.8967 108.342 86.0228L79.4197 89.4843L50.4812 92.7819L50.4777 92.7824C50.3978 92.791 50.317 92.7819 50.2405 92.7556C46.1147 91.3129 41.9844 89.8848 37.87 88.4035L25.5158 83.9962C21.395 82.5362 17.2809 81.0535 13.1737 79.548L0.851318 75.0333L13.3125 79.0799C17.4661 80.4293 21.6132 81.8004 25.7539 83.1932L38.1832 87.3473C42.33 88.7198 46.4609 90.1454 50.5962 91.5565L50.3557 91.5301L79.2784 88.0741L108.217 84.782C117.861 83.6569 127.518 82.6708 137.169 81.6147C141.994 81.0845 146.821 80.5795 151.652 80.0996L166.141 78.6487Z" fill="#020202"/>
<path d="M0.849609 81.67C4.93884 83.2061 9.00229 84.8153 13.078 86.3898L25.2638 91.2295L31.3541 93.6568L37.4248 96.1388L49.5663 101.103L49.2563 101.063C55.0424 100.219 60.8403 99.4736 66.6335 98.69L84.0177 96.3751L101.417 94.1872C107.222 93.5001 113.023 92.7856 118.834 92.1539C113.063 93.1209 107.282 94.0054 101.503 94.9173L84.1542 97.5261L66.7898 100.008C61.0003 100.823 55.2152 101.677 49.4186 102.432L49.4113 102.433C49.3087 102.446 49.2047 102.432 49.1082 102.392L37.0059 97.3172L30.9547 94.7799L24.923 92.188L12.865 86.989C8.85936 85.2171 4.84151 83.4801 0.849609 81.67Z" fill="#020202"/>
<path d="M48.8458 165.531C48.7219 159.41 48.682 153.291 48.7261 147.174C48.7519 141.057 48.8548 134.941 48.9728 128.826C49.1152 122.712 49.2744 116.597 49.5105 110.485C49.7277 104.373 50.0304 98.2621 50.4185 92.1538C50.544 98.2749 50.5846 104.394 50.5403 110.511C50.514 116.628 50.4111 122.744 50.2915 128.859C50.1473 134.974 49.9882 141.088 49.7518 147.2C49.534 153.312 49.232 159.423 48.8458 165.531Z" fill="#020202"/>
<path d="M225.877 26.2277C225.064 25.836 224.319 25.2997 223.672 24.6412C223.031 23.963 222.476 23.1958 222.022 22.3596C221.576 21.519 221.208 20.6336 220.922 19.7159C220.633 18.7885 220.425 17.8342 220.3 16.8652C220.294 16.8209 220.295 16.7759 220.303 16.7319L220.317 16.6519C220.52 15.6563 220.625 14.6401 220.629 13.6206C220.636 12.6054 220.536 11.5926 220.333 10.6014C219.928 8.62589 219.168 6.75557 218.094 5.09694L218.166 5.17918C217.024 4.00113 215.753 2.97896 214.38 2.13567C212.986 1.31031 211.473 0.74588 209.905 0.466385C206.686 0.0278285 203.423 0.719568 200.598 2.43911C199.888 2.84921 199.203 3.30852 198.548 3.81418C198.221 4.06597 197.901 4.32662 197.592 4.59806C197.448 4.72708 197.266 4.8874 197.169 4.99608C197.047 5.13884 196.921 5.30542 196.799 5.46696C195.855 6.82502 195.143 8.35488 194.699 9.98392C194.252 11.6048 194.017 13.2851 194.002 14.9761C194.018 16.6728 194.207 18.3624 194.564 20.0146C194.588 20.1327 194.59 20.2545 194.57 20.3733C194.421 21.264 194.26 22.1351 194.077 23.0153C193.902 23.9119 193.681 24.7973 193.415 25.6672C193.291 26.0745 192.994 26.7855 193.061 26.6375C193.033 26.5866 193.076 26.7201 193.309 26.8954C193.838 27.2429 194.442 27.4352 195.061 27.4534L195.124 27.4508C195.263 27.4456 195.4 27.4771 195.525 27.5424C195.649 27.6078 195.757 27.7051 195.839 27.8258C196.764 29.2075 197.742 30.5701 198.712 31.9196C199.658 33.2596 200.684 34.5313 201.784 35.7263C201.92 35.8597 202.056 35.9854 202.189 36.0947C202.252 36.1426 202.318 36.1939 202.373 36.2292L202.446 36.2733C202.468 36.286 202.463 36.2771 202.472 36.2874C202.498 36.3031 202.414 36.2723 202.391 36.2973C202.371 36.3105 202.457 36.2827 202.484 36.2777C202.57 36.2581 202.656 36.2337 202.74 36.2046C202.913 36.1525 203.093 36.0838 203.271 36.0189C203.994 35.7317 204.694 35.3823 205.365 34.9741C206.738 34.2115 207.92 33.1016 208.81 31.7391L208.832 31.7033C208.85 31.6732 208.873 31.6473 208.9 31.6269C208.927 31.6065 208.958 31.5921 208.99 31.5845C209.023 31.5769 209.056 31.5763 209.089 31.5826C209.121 31.589 209.152 31.6022 209.18 31.6216L209.208 31.6435C209.603 32.0041 209.97 32.3984 210.307 32.8226C210.477 33.0347 210.63 33.2629 210.763 33.5044C210.906 33.7468 211.005 34.0169 211.053 34.2999C211.056 34.3219 211.052 34.3442 211.04 34.3625C211.028 34.3808 211.011 34.3937 210.991 34.3987C210.971 34.4037 210.95 34.4004 210.932 34.3895C210.914 34.3786 210.901 34.3608 210.894 34.3397L210.893 34.3345C210.705 33.8533 210.412 33.4282 210.039 33.0951C209.68 32.7346 209.295 32.4057 208.887 32.1114L209.285 32.0158C208.488 33.608 207.32 34.9483 205.897 35.904C205.205 36.4033 204.476 36.8414 203.719 37.2142C203.523 37.3033 203.333 37.3978 203.124 37.4742C203.024 37.5154 202.918 37.5536 202.805 37.5877C202.74 37.6114 202.674 37.6296 202.607 37.642C202.481 37.6633 202.354 37.6614 202.229 37.6366C201.947 37.5659 201.68 37.4369 201.444 37.2568C201.249 37.1167 201.074 36.9715 200.905 36.8246C199.675 35.6496 198.533 34.3719 197.49 33.0034C196.431 31.681 195.443 30.3166 194.455 28.9281L195.232 29.3002C194.715 29.3353 194.196 29.2746 193.697 29.1206C193.206 28.9845 192.74 28.7598 192.319 28.4558C192.061 28.2712 191.835 28.0374 191.655 27.7657C191.42 27.4205 191.3 26.9998 191.314 26.5718C191.318 26.3627 191.358 26.1562 191.43 25.962L191.522 25.7106L191.572 25.5897C191.641 25.435 191.706 25.2378 191.768 25.0496C192.253 23.4061 192.655 21.7353 192.971 20.0447L192.977 20.4031C192.636 18.6054 192.481 16.7724 192.515 14.9377C192.583 13.0948 192.918 11.2747 193.507 9.54331C193.651 9.11121 193.835 8.69406 194.005 8.2743C194.209 7.8702 194.381 7.45024 194.613 7.06371C195.041 6.26947 195.544 5.52453 196.113 4.84043C196.261 4.6695 196.403 4.50292 196.569 4.33372C196.738 4.17817 196.913 4.03221 197.096 3.89642C197.438 3.63367 197.787 3.38693 198.141 3.15045C198.848 2.67557 199.586 2.26329 200.33 1.86893C203.316 0.247908 206.648 -0.487176 209.984 -0.260984C211.668 -0.10833 213.316 0.347581 214.861 1.08784C216.408 1.84065 217.842 2.83972 219.114 4.0517C219.139 4.07446 219.161 4.09942 219.181 4.12629L219.187 4.13413C219.839 5.03455 220.381 6.02138 220.801 7.07051C221.225 8.10121 221.537 9.18145 221.73 10.2896C221.943 11.3954 222.024 12.526 221.971 13.6539C221.924 14.7776 221.762 15.8921 221.486 16.9767L221.503 16.7637C221.566 17.6538 221.704 18.5358 221.915 19.3989C222.119 20.2747 222.396 21.1288 222.743 21.9509C223.094 22.7718 223.538 23.5431 224.063 24.2474C224.606 24.9524 225.243 25.5669 225.952 26.0709L225.957 26.0747C225.974 26.0873 225.986 26.1062 225.991 26.1278C225.995 26.1494 225.992 26.1721 225.982 26.1913C225.972 26.2105 225.955 26.2249 225.936 26.2317C225.916 26.2384 225.895 26.237 225.877 26.2277L225.877 26.2277Z" fill="black"/>
<path d="M196.032 25.2301C195.89 25.2304 195.75 25.1904 195.626 25.1141C195.502 25.0379 195.399 24.928 195.326 24.7954L193.065 20.6584C193.01 20.5584 192.974 20.4477 192.959 20.3326C192.943 20.2175 192.949 20.1002 192.976 19.9876C193.003 19.875 193.05 19.7691 193.115 19.6762C193.179 19.5832 193.26 19.5049 193.353 19.4458C193.446 19.3867 193.549 19.348 193.655 19.3318C193.762 19.3155 193.871 19.3222 193.975 19.3514C194.079 19.3805 194.177 19.4316 194.263 19.5017C194.349 19.5718 194.422 19.6594 194.476 19.7597L196.737 23.8968C196.811 24.031 196.85 24.1838 196.851 24.3396C196.852 24.4954 196.815 24.6488 196.743 24.7842C196.672 24.9196 196.568 25.0321 196.443 25.1104C196.319 25.1888 196.177 25.23 196.032 25.2301Z" fill="black"/>
<path d="M194.267 21.5591C194.18 21.559 194.095 21.5289 194.025 21.4732C193.955 21.4175 193.903 21.3392 193.877 21.2495C193.851 21.1598 193.852 21.0634 193.88 20.9744C193.908 20.8853 193.961 20.8083 194.033 20.7543C195.221 19.8599 205.713 12.033 207.944 12.1297C207.998 12.1323 208.051 12.1464 208.1 12.171C208.148 12.1956 208.192 12.2304 208.228 12.2733C208.265 12.3162 208.293 12.3663 208.311 12.4209C208.329 12.4755 208.337 12.5335 208.335 12.5915C208.328 12.7081 208.28 12.8173 208.2 12.896C208.12 12.9747 208.015 13.0167 207.907 13.013C207.897 13.0123 207.886 13.0123 207.876 13.0123C206.33 13.0123 198.872 18.1899 194.501 21.4791C194.433 21.5309 194.351 21.5589 194.267 21.5591Z" fill="black"/>
<path d="M206.746 14.6928C206.732 14.0328 206.929 13.3876 207.303 12.8657C207.416 12.7238 207.555 12.6079 207.71 12.5247C207.865 12.4415 208.035 12.3927 208.208 12.3812L208.471 12.3767C208.556 12.3871 208.634 12.4134 208.717 12.4324C208.878 12.4658 209.033 12.5246 209.178 12.6068C209.463 12.7473 209.732 12.922 209.98 13.1277C210.207 13.3435 210.446 13.5398 210.663 13.7758C211.096 14.2533 211.454 14.8044 211.723 15.407C212.236 16.6198 212.381 17.9763 212.138 19.2834C212.028 19.9336 211.794 20.5521 211.452 21.1001C211.276 21.3847 211.035 21.6146 210.751 21.7672C210.61 21.8443 210.449 21.8686 210.293 21.8362C210.138 21.8037 209.996 21.7164 209.892 21.5879C210.005 21.6669 210.137 21.706 210.272 21.6997C210.406 21.6935 210.535 21.6422 210.641 21.5531C210.845 21.3718 211.005 21.1395 211.107 20.8763C211.329 20.3399 211.464 19.7664 211.506 19.1808C211.611 18.0174 211.43 16.8447 210.981 15.781C210.758 15.2581 210.461 14.7755 210.102 14.3501C209.927 14.1317 209.717 13.9354 209.526 13.7245C209.326 13.5393 209.114 13.3708 208.891 13.2204C208.708 13.058 208.48 12.9658 208.243 12.958C208.005 12.9502 207.772 13.0274 207.58 13.1775C207.177 13.5895 206.889 14.1141 206.746 14.6928ZM196.796 31.0227C197.423 30.9476 198.045 30.8212 198.654 30.6446C198.934 30.5607 199.205 30.4463 199.463 30.3033C199.741 30.167 200.001 29.9752 200.34 29.7895C200.285 30.1894 200.114 30.5604 199.853 30.85C199.591 31.1544 199.258 31.376 198.889 31.4911C198.526 31.6058 198.143 31.6254 197.772 31.5482C197.405 31.4811 197.066 31.2982 196.796 31.0227ZM194.267 18.4863C194.238 17.8805 194.421 17.2851 194.781 16.8189C195.138 16.3387 195.61 15.9717 196.145 15.7568C196.663 15.5511 197.213 15.456 197.765 15.4771C198.033 15.4986 198.299 15.5356 198.563 15.5878C198.822 15.6597 199.076 15.7505 199.324 15.8596C199.07 15.9301 198.812 15.9843 198.552 16.0218C198.301 16.0714 198.056 16.1303 197.813 16.165C197.345 16.264 196.886 16.4032 196.439 16.5812C195.533 16.9268 194.766 17.5999 194.267 18.4863ZM197.703 22.2641C197.942 22.2552 198.168 22.1465 198.334 21.961C198.5 21.7754 198.593 21.5276 198.593 21.2696C198.593 21.0117 198.5 20.7638 198.334 20.5783C198.168 20.3927 197.942 20.284 197.703 20.2751C197.464 20.284 197.238 20.3927 197.071 20.5783C196.905 20.7638 196.813 21.0117 196.813 21.2696C196.813 21.5276 196.905 21.7754 197.071 21.961C197.238 22.1465 197.464 22.2552 197.703 22.2641ZM216.281 47.4707C215.344 46.6283 214.281 45.9643 213.137 45.5072C212.009 45.0507 210.838 44.7276 209.645 44.5434C208.445 44.3487 207.234 44.2412 206.021 44.2215L204.182 44.2308C203.567 44.261 202.95 44.294 202.323 44.2885C202.92 44.1005 203.529 43.9512 204.139 43.7992C204.755 43.6983 205.376 43.5964 206 43.5321C207.258 43.4233 208.523 43.4697 209.771 43.6705C211.03 43.8694 212.253 44.2772 213.396 44.8795C214.548 45.4611 215.542 46.3535 216.281 47.4707ZM170.313 83.7354C170.663 82.4827 171.128 81.2709 171.701 80.118C172.26 78.9516 172.915 77.8414 173.657 76.8007C174.395 75.7417 175.257 74.7908 176.222 73.9718C177.177 73.1306 178.309 72.5542 179.518 72.2929C178.458 72.864 177.487 73.6072 176.637 74.4967C175.789 75.3744 175.009 76.3256 174.305 77.3406C172.851 79.349 171.608 81.5349 170.313 83.7354ZM199.324 97.3274C199.693 97.4282 200.077 97.4492 200.453 97.3891C200.827 97.3442 201.195 97.2541 201.55 97.1206L202.073 96.8975C202.245 96.8182 202.405 96.7085 202.571 96.616C202.901 96.4245 203.217 96.2052 203.515 95.9603C204.714 94.9778 205.781 93.8213 206.686 92.5236C207.125 91.8604 207.571 91.2028 207.99 90.5257C208.384 89.8277 208.806 89.1513 209.175 88.4377L210.273 86.29L211.274 84.0829C212.596 81.1168 213.89 78.118 215.257 75.1679L217.303 70.7385C218.012 69.2767 218.696 67.8016 219.427 66.3526C218.862 67.8911 218.25 69.4038 217.664 70.9296L215.824 75.4631C214.591 78.4835 213.324 81.476 212.013 84.4632C210.734 87.4984 209.109 90.349 207.175 92.9487C206.181 94.2402 205.024 95.3744 203.738 96.3179C203.409 96.5451 203.065 96.7441 202.708 96.9131C202.528 96.9947 202.355 97.0922 202.171 97.1595L201.611 97.3437C200.865 97.5878 200.068 97.5821 199.324 97.3274ZM198.568 77.403C198.519 77.4031 198.47 77.3934 198.424 77.3745L194.757 75.8889C194.656 75.8473 194.574 75.7641 194.53 75.6576C194.485 75.551 194.481 75.4297 194.519 75.3202C194.558 75.2107 194.634 75.122 194.733 75.0735C194.831 75.0249 194.944 75.0205 195.045 75.0612L198.712 76.5468C198.802 76.5833 198.877 76.6526 198.924 76.7427C198.971 76.8328 198.988 76.9379 198.971 77.0398C198.954 77.1416 198.904 77.2338 198.83 77.3001C198.757 77.3665 198.664 77.4029 198.568 77.403V77.403ZM168.456 76.3018C167.574 76.5989 166.64 76.6655 165.73 76.496C164.806 76.3151 163.922 75.9511 163.121 75.4225C162.327 74.8999 161.596 74.273 160.945 73.556C160.292 72.832 159.713 72.0352 159.217 71.179L160.05 71.5522C158.358 72.0205 156.613 72.224 154.868 72.1562C153.975 72.141 153.09 71.9788 152.242 71.6755C151.79 71.5099 151.389 71.2117 151.085 70.8142C150.927 70.6101 150.806 70.3752 150.73 70.1222C150.674 69.8552 150.674 69.5782 150.729 69.3112C150.852 68.8229 151.091 68.3779 151.423 68.0204C151.718 67.6666 152.041 67.3422 152.39 67.051C153.065 66.4654 153.775 65.9288 154.515 65.4447C155.974 64.4707 157.493 63.6083 159.064 62.8637C159.854 62.514 160.594 62.1059 161.503 61.8051C162.388 61.5141 163.306 61.3594 164.231 61.3454C165.145 61.3411 166.055 61.473 166.936 61.7373C167.807 61.9719 168.653 62.3014 169.462 62.7208C171.038 63.5519 172.499 64.6167 173.802 65.8843C175.099 67.1086 176.25 68.502 177.23 70.0324C177.241 70.0502 177.246 70.0717 177.244 70.0931C177.241 70.1145 177.232 70.1342 177.217 70.1487C177.202 70.1631 177.183 70.1712 177.163 70.1715C177.143 70.1718 177.124 70.1643 177.109 70.1503L177.105 70.1467C174.644 67.7412 171.841 65.778 168.803 64.3322C168.071 63.9956 167.31 63.7391 166.531 63.5665C165.778 63.3473 165.002 63.2324 164.222 63.2245C163.453 63.1986 162.683 63.2859 161.936 63.4841C161.212 63.6728 160.414 64.0438 159.625 64.3447C158.059 64.9898 156.481 65.6027 154.95 66.3254C154.193 66.6903 153.46 67.1114 152.756 67.5859C152.418 67.828 152.102 68.1034 151.811 68.4085C151.532 68.6865 151.326 69.039 151.214 69.4304C151.169 69.6121 151.171 69.8036 151.22 69.9842C151.268 70.1647 151.361 70.3277 151.489 70.4554C151.737 70.7572 152.068 70.9646 152.434 71.0466C153.224 71.2199 154.036 71.243 154.833 71.1148C156.459 70.8412 158.07 70.4767 159.661 70.023C159.819 69.9836 159.984 69.9984 160.133 70.0653C160.283 70.1323 160.409 70.248 160.494 70.3963C160.925 71.1546 161.416 71.8708 161.963 72.5366C162.504 73.2175 163.109 73.8367 163.767 74.3847C164.421 74.9325 165.148 75.3689 165.924 75.6787C166.727 75.9906 167.575 76.1426 168.428 76.1275C168.45 76.127 168.471 76.1359 168.487 76.1523C168.503 76.1686 168.512 76.1911 168.513 76.2148C168.513 76.2339 168.508 76.2526 168.497 76.2682C168.487 76.2838 168.473 76.2955 168.456 76.3018ZM182.308 138.469L184.148 143.319C184.156 143.342 184.158 143.366 184.154 143.39C184.15 143.413 184.14 143.435 184.124 143.453C184.109 143.47 184.089 143.482 184.067 143.488C184.046 143.493 184.023 143.492 184.002 143.484L183.995 143.481C183.071 143.092 182.104 142.838 181.119 142.724C180.139 142.635 179.152 142.715 178.195 142.96C176.292 143.538 174.563 144.646 173.182 146.173C171.785 147.692 170.578 149.402 169.593 151.26C168.582 153.104 167.732 155.045 167.053 157.059L167.051 157.063C167.029 157.132 166.987 157.192 166.931 157.234C166.876 157.276 166.81 157.3 166.743 157.3C166.675 157.301 166.608 157.28 166.552 157.239C166.496 157.198 166.453 157.139 166.429 157.071L162.857 147.113L159.345 137.131L159.997 136.961L161.254 150.765C161.66 155.368 162.103 159.967 162.547 164.565C162.55 164.595 162.544 164.626 162.53 164.653C161.565 166.291 160.104 167.52 158.396 168.13C156.723 168.752 154.974 169.105 153.206 169.177C151.446 169.268 149.683 169.224 147.929 169.045C146.173 168.875 144.429 168.593 142.704 168.2C142.663 168.191 142.626 168.168 142.597 168.135C142.568 168.102 142.549 168.061 142.543 168.016L142.542 168.01C141.538 161.028 140.696 154.024 140.014 146.998C139.352 139.97 138.847 132.919 138.677 125.845C138.664 124.075 138.648 122.305 138.672 120.534L138.754 117.877L138.8 116.549L138.901 115.221L139.108 112.567L139.481 109.922C139.61 109.039 139.79 108.164 140.018 107.305C140.123 106.871 140.215 106.434 140.331 106.004L140.768 104.742L141.212 103.482C141.395 103.078 141.597 102.683 141.79 102.283C141.989 101.888 142.169 101.48 142.385 101.096L143.106 99.9867C143.59 99.2502 144.132 98.5591 144.724 97.9206C145.021 97.602 145.335 97.3022 145.664 97.0225C145.973 96.718 146.306 96.4422 146.658 96.1979L147.712 95.4615L148.835 94.859C149.213 94.6659 149.601 94.4976 149.997 94.3549C150.385 94.1913 150.784 94.0573 151.191 93.9539C152.805 93.4767 154.484 93.3038 156.154 93.4427L155.885 93.6074C156.235 92.7952 156.667 92.0277 157.175 91.3192C157.695 90.6251 158.284 89.9937 158.93 89.4361C160.24 88.3615 161.714 87.5434 163.286 87.0191C164.844 86.5008 166.45 86.1697 168.075 86.0318C169.693 85.879 171.319 85.8844 172.936 86.0479C172.947 86.0491 172.957 86.0548 172.963 86.0639C172.97 86.0729 172.974 86.0845 172.973 86.0961C172.971 86.1077 172.966 86.1183 172.957 86.1257C172.949 86.1331 172.938 86.1367 172.927 86.1358C171.317 86.0239 169.7 86.0693 168.098 86.2714C166.499 86.4577 164.924 86.8337 163.401 87.3926C161.884 87.9295 160.464 88.7475 159.206 89.8098C158.596 90.3534 158.043 90.9664 157.554 91.6382C157.082 92.3199 156.681 93.0562 156.36 93.8336C156.338 93.8856 156.302 93.9292 156.256 93.9588C156.211 93.9884 156.159 94.0025 156.106 93.9995L156.091 93.9985C152.87 93.8029 149.682 94.787 147.044 96.7914C144.47 98.8746 142.548 101.757 141.536 105.053L141.116 106.27C141.005 106.687 140.918 107.112 140.817 107.532C140.597 108.369 140.424 109.22 140.301 110.079L139.942 112.669L139.744 115.289L139.648 116.6L139.606 117.916L139.531 120.55C139.509 122.307 139.538 124.067 139.543 125.826C139.663 132.865 140.132 139.902 140.734 146.922C141.324 153.943 142.068 160.949 142.966 167.94L142.803 167.75C144.505 168.167 146.228 168.475 147.963 168.674C149.698 168.886 151.446 168.95 153.19 168.865C154.932 168.805 156.656 168.469 158.307 167.868C159.964 167.295 161.379 166.104 162.297 164.509L162.28 164.596C161.808 160.001 161.333 155.406 160.823 150.815L159.325 137.04C159.315 136.951 159.336 136.863 159.383 136.79C159.43 136.717 159.499 136.665 159.579 136.643C159.659 136.622 159.743 136.633 159.816 136.674C159.889 136.714 159.946 136.783 159.975 136.865L159.977 136.87L163.545 146.829L167.049 156.815L166.424 156.827C167.132 154.773 168.014 152.795 169.061 150.918C170.095 149.026 171.361 147.294 172.825 145.769C174.29 144.209 176.109 143.093 178.1 142.532C179.103 142.296 180.135 142.243 181.154 142.374C182.162 142.524 183.147 142.818 184.084 143.249L183.931 143.411L182.232 138.502C182.228 138.491 182.228 138.479 182.233 138.468C182.237 138.457 182.245 138.449 182.255 138.445C182.265 138.441 182.276 138.441 182.286 138.445C182.296 138.45 182.304 138.459 182.308 138.469H182.308Z" fill="black"/>
<path d="M159.661 137L160.39 144.284L155.877 116.66L160.808 140.227L159.661 137Z" fill="black"/>
<path d="M193.096 98.096C183.989 98.096 157.339 94.3394 156.069 94.1592C156.016 94.1518 155.964 94.1331 155.917 94.1042C155.871 94.0753 155.83 94.0367 155.797 93.9906C155.764 93.9446 155.74 93.892 155.726 93.8358C155.712 93.7797 155.708 93.7211 155.715 93.6635C155.722 93.6058 155.74 93.5502 155.767 93.4999C155.793 93.4495 155.829 93.4054 155.872 93.3701C155.915 93.3347 155.964 93.3088 156.016 93.2938C156.068 93.2788 156.122 93.2751 156.175 93.2828C156.524 93.3315 191.124 98.2065 195.432 97.0415C195.485 97.0271 195.539 97.024 195.592 97.0323C195.646 97.0406 195.697 97.0602 195.743 97.09C195.789 97.1197 195.83 97.159 195.862 97.2057C195.894 97.2523 195.918 97.3054 195.931 97.3618C195.944 97.4182 195.947 97.4768 195.939 97.5343C195.931 97.5919 195.912 97.6471 195.885 97.697C195.857 97.7469 195.82 97.7903 195.777 97.8249C195.734 97.8594 195.684 97.8844 195.632 97.8984C194.796 98.0611 193.946 98.1274 193.096 98.096Z" fill="black"/>
<path d="M255.206 49.5917C255.206 49.5917 225.717 42.1701 218.444 80.1463C211.17 118.115 209.316 115.359 209.316 115.359C196.043 136.121 170.158 123.386 164.284 120.117C163.617 119.727 162.855 119.565 162.101 119.652C161.347 119.74 160.635 120.074 160.06 120.608C158.483 122.168 158.727 124.689 158.727 124.689L158.839 127.545C158.859 128.005 158.971 128.456 159.167 128.865C159.363 129.274 159.638 129.633 159.974 129.917C169.544 138.122 186.579 139.824 201.996 138.955C202.881 138.905 203.765 138.848 204.636 138.777C217.962 137.773 229.65 134.952 233.584 132.972C242.428 128.514 244.982 130.423 258.743 91.1716C272.511 51.9277 255.206 49.5917 255.206 49.5917ZM261.073 60.0543L261.066 60.0472C257.199 57.7733 252.747 56.9325 248.394 57.654C244.118 58.4304 240.375 61.1298 237.511 64.5983C236.067 66.3523 234.781 68.2506 233.67 70.2676C232.534 72.2914 231.524 74.3948 230.647 76.5638C228.918 80.9442 227.473 85.4492 226.324 90.0463C225.763 92.3541 225.176 94.6688 224.674 97.0048C224.41 98.1729 224.1 99.3266 223.823 100.488C223.545 101.649 223.248 102.802 222.945 103.956C221.824 108.616 220.433 113.195 218.78 117.667C218.365 118.785 217.863 119.867 217.381 120.957C216.84 122.025 216.345 123.108 215.731 124.127C214.573 126.228 213.188 128.174 211.606 129.924C210.019 131.714 208.063 133.073 205.897 133.891C205.442 134.05 204.977 134.169 204.505 134.247C203.714 134.381 202.91 134.398 202.115 134.297C201.115 134.165 200.153 133.806 199.29 133.243C199.283 133.238 199.276 133.232 199.271 133.224C199.266 133.216 199.262 133.207 199.261 133.198C199.259 133.189 199.259 133.179 199.26 133.17C199.262 133.16 199.266 133.151 199.271 133.144C199.278 133.129 199.291 133.118 199.305 133.113C199.32 133.108 199.336 133.109 199.35 133.115L199.357 133.122C200.246 133.563 201.209 133.805 202.188 133.834C202.3 133.841 202.412 133.848 202.525 133.848C203.158 133.841 203.789 133.757 204.405 133.599C204.835 133.49 205.259 133.352 205.673 133.186C207.665 132.28 209.442 130.903 210.874 129.155C212.34 127.415 213.632 125.512 214.728 123.478C215.309 122.474 215.804 121.413 216.332 120.38C216.8 119.305 217.342 118.272 217.777 117.182C219.661 112.862 221.249 108.399 222.529 103.828C223.189 101.542 223.697 99.2127 224.219 96.8909C224.72 94.5547 225.136 92.2115 225.625 89.8612C226.533 85.1372 227.831 80.5105 229.505 76.0367C231.157 71.4897 233.512 67.2778 236.468 63.5798C238.001 61.7413 239.791 60.1742 241.775 58.9361C243.77 57.7037 245.966 56.8939 248.243 56.5502C252.776 55.9962 257.345 57.1921 261.139 59.926C261.146 59.9311 261.153 59.9377 261.158 59.9455C261.163 59.9533 261.167 59.9621 261.168 59.9714C261.17 59.9807 261.17 59.9903 261.169 59.9997C261.167 60.009 261.164 60.0179 261.159 60.0258C261.15 60.0403 261.136 60.051 261.121 60.0562C261.105 60.0614 261.088 60.0607 261.073 60.0543H261.073ZM232.091 187.955C232.077 188.686 231.863 189.397 231.475 189.997C231.094 190.588 230.633 191.114 230.109 191.559C229.065 192.443 227.928 193.189 226.719 193.78C224.308 194.966 221.792 195.891 219.211 196.54C214.054 197.86 208.76 198.454 203.462 198.307C198.182 198.158 192.926 197.479 187.763 196.277C185.173 195.712 182.635 194.897 180.179 193.843C178.934 193.306 177.754 192.607 176.665 191.762C176.102 191.321 175.606 190.787 175.195 190.181C174.753 189.533 174.499 188.758 174.467 187.955C174.467 187.14 174.69 186.344 175.109 185.666C175.501 185.026 175.983 184.455 176.537 183.973C177.6 183.046 178.775 182.281 180.031 181.698C182.482 180.542 185.04 179.671 187.662 179.098C192.858 177.93 198.154 177.359 203.462 177.396C208.766 177.369 214.055 178.023 219.216 179.343C221.797 180.001 224.312 180.93 226.725 182.117C227.933 182.709 229.072 183.456 230.115 184.343C230.639 184.789 231.099 185.317 231.479 185.91C231.866 186.511 232.079 187.223 232.091 187.955ZM231.927 187.955C231.904 186.544 230.976 185.373 229.963 184.548C228.914 183.719 227.763 183.053 226.544 182.567C224.102 181.594 221.574 180.895 218.999 180.483C213.857 179.647 208.662 179.246 203.462 179.282C198.268 179.256 193.083 179.74 187.971 180.728C185.437 181.226 182.951 181.982 180.549 182.985C179.375 183.482 178.262 184.131 177.234 184.917C176.251 185.694 175.404 186.746 175.363 187.955C175.329 189.167 176.141 190.317 177.105 191.167C178.107 192.037 179.216 192.752 180.401 193.292C182.799 194.398 185.304 195.211 187.87 195.716C190.437 196.236 193.034 196.568 195.643 196.709C198.248 196.881 200.858 196.897 203.462 196.835C208.666 196.75 213.858 196.289 219.004 195.453C221.579 195.032 224.106 194.329 226.549 193.356C227.769 192.869 228.92 192.201 229.969 191.37C230.981 190.542 231.907 189.365 231.927 187.955ZM160.925 166.459C161.356 167.309 161.675 168.219 161.871 169.164C162.099 170.098 162.274 171.043 162.423 171.992C162.716 173.89 162.954 175.797 163.119 177.71C163.197 178.677 163.284 179.604 163.327 180.603C163.349 181.613 163.19 182.618 162.858 183.563C162.691 184.039 162.472 184.491 162.206 184.912C161.936 185.318 161.641 185.704 161.323 186.067C160.689 186.791 159.957 187.407 159.153 187.895C157.552 188.84 155.782 189.403 153.963 189.546C153.063 189.631 152.156 189.608 151.261 189.478C150.811 189.419 150.366 189.319 149.932 189.18C149.5 189.036 149.085 188.873 148.665 188.709C145.302 187.39 142.243 185.384 138.935 184.014C135.649 182.601 132.258 181.41 129.002 179.809C127.339 179.04 125.76 178.077 124.292 176.936C123.552 176.338 122.884 175.642 122.304 174.864C121.971 174.426 121.756 173.898 121.683 173.338C121.645 173.05 121.651 172.757 121.701 172.471C121.76 172.194 121.851 171.927 121.972 171.676C122.477 170.767 123.223 170.043 124.114 169.596C124.951 169.146 125.851 168.85 126.778 168.72C127.237 168.654 127.699 168.622 128.162 168.623C128.622 168.644 129.096 168.681 129.517 168.718C130.382 168.797 131.265 168.797 132.145 168.783C135.676 168.707 139.217 168.338 142.748 167.931C142.758 167.93 142.769 167.933 142.778 167.94C142.786 167.948 142.792 167.958 142.793 167.97C142.794 167.981 142.792 167.992 142.785 168.001C142.779 168.01 142.77 168.017 142.76 168.019C139.26 168.743 135.722 169.229 132.166 169.474C131.272 169.515 130.376 169.543 129.469 169.488C129.004 169.461 128.591 169.443 128.163 169.435C127.738 169.447 127.314 169.489 126.894 169.563C126.061 169.707 125.253 169.99 124.5 170.401C123.773 170.773 123.163 171.367 122.747 172.11C122.577 172.456 122.51 172.849 122.553 173.238C122.597 173.627 122.75 173.992 122.992 174.284C123.529 174.998 124.141 175.644 124.815 176.208C126.218 177.331 127.73 178.286 129.325 179.054C132.518 180.681 135.858 181.987 139.112 183.569C140.742 184.346 142.325 185.232 143.909 186.1C145.468 187.007 147.09 187.783 148.761 188.421C149.576 188.769 150.43 189.003 151.3 189.117C152.172 189.201 153.049 189.181 153.916 189.057C155.645 188.836 157.312 188.224 158.807 187.261C159.54 186.785 160.208 186.202 160.792 185.527C161.385 184.879 161.859 184.115 162.19 183.277C162.502 182.428 162.659 181.523 162.653 180.611C162.628 179.695 162.555 178.711 162.493 177.768C162.356 175.862 162.226 173.954 161.999 172.06C161.856 170.16 161.471 168.29 160.855 166.504L160.853 166.499C160.849 166.489 160.848 166.478 160.852 166.467C160.855 166.456 160.862 166.448 160.871 166.442C160.881 166.437 160.891 166.436 160.901 166.439C160.911 166.442 160.92 166.449 160.925 166.459L160.925 166.459Z" fill="black"/>
<path d="M145.978 168.603C146.059 169.624 146.198 170.639 146.393 171.642C146.571 172.631 146.84 173.599 147.197 174.53C147.511 175.424 148.055 176.203 148.764 176.777C149.108 177.026 149.502 177.18 149.914 177.226C150.34 177.261 150.768 177.213 151.179 177.084C152.049 176.805 152.87 176.373 153.609 175.805C154.376 175.263 155.062 174.597 155.641 173.83C156.826 172.253 157.504 170.304 157.575 168.276C157.819 170.389 157.31 172.524 156.15 174.247C154.965 175.99 153.298 177.283 151.388 177.938C150.88 178.088 150.351 178.137 149.826 178.084C149.286 178.018 148.771 177.806 148.328 177.466C147.515 176.781 146.914 175.845 146.605 174.783C146.008 172.791 145.795 170.687 145.978 168.603ZM131.843 174.181C131.619 173.621 131.543 173.006 131.623 172.402C131.692 171.781 131.898 171.188 132.225 170.671C132.55 170.155 132.986 169.731 133.494 169.433C133.739 169.286 133.999 169.168 134.268 169.082C134.536 169.008 134.811 168.962 135.087 168.942C134.875 169.147 134.651 169.295 134.447 169.471C134.251 169.658 134.035 169.802 133.861 169.998C133.772 170.092 133.681 170.181 133.588 170.266L133.344 170.558C133.18 170.746 133.032 170.95 132.902 171.167C132.355 172.08 131.994 173.107 131.843 174.181ZM136.266 174.181C136.038 173.631 135.967 173.021 136.062 172.428C136.144 171.831 136.331 171.257 136.613 170.736C136.897 170.226 137.257 169.769 137.678 169.385C137.887 169.199 138.108 169.028 138.338 168.873C138.576 168.732 138.823 168.609 139.078 168.507C138.931 168.746 138.773 168.978 138.603 169.2L138.142 169.859C137.846 170.285 137.572 170.727 137.319 171.183C136.804 172.106 136.447 173.121 136.266 174.181Z" fill="black"/>
<path d="M143.975 190.817C142.441 190.279 140.961 189.574 139.559 188.713C137.167 187.237 132.99 184.7 131.81 184.205C128.091 182.631 123.677 181.005 122.087 178.371C119.376 173.881 122.085 171.561 122.085 171.561C122.943 176.501 128.304 179.272 135.971 182.455C143.639 185.637 144.589 187.14 149.831 188.979C152.616 189.96 158.932 189.376 161.906 184.682C162.118 184.349 162.299 183.993 162.446 183.622L162.991 179.009C167.015 196.23 149.872 192.877 143.975 190.817ZM168.096 177.592C167.277 177.303 166.563 176.744 166.055 175.993C165.546 175.243 165.269 174.339 165.263 173.409C165.189 172.076 165.512 170.753 166.184 169.633C166.857 168.512 167.843 167.653 169 167.18C173.151 165.293 175.117 159.814 175.857 157.102C176.476 154.797 177.434 152.614 178.695 150.636C180.761 147.421 184.005 144.205 187.962 146.502C189.334 147.346 190.375 148.698 190.892 150.308C191.883 153.177 193.472 156.01 189.172 162.321C188.474 163.331 187.721 164.293 186.915 165.204C185.669 166.656 184.693 168.353 184.039 170.203C183.442 172.006 177.594 180.852 168.096 177.592Z" fill="black"/>
<path d="M168.88 151.922C169.295 154.21 169.292 156.563 168.871 158.85C168.475 161.153 167.739 163.372 166.69 165.422C166.167 166.431 165.592 167.408 164.967 168.347C164.691 168.805 164.471 169.3 164.315 169.819C164.179 170.348 164.123 170.897 164.149 171.445C164.147 172.574 164.334 173.693 164.701 174.75C164.861 175.29 165.15 175.775 165.538 176.157C165.926 176.539 166.399 176.806 166.911 176.931C166.369 176.883 165.854 176.651 165.441 176.269C165.033 175.875 164.704 175.396 164.473 174.86C164.017 173.792 163.754 172.639 163.7 171.463C163.651 170.863 163.683 170.259 163.794 169.668C163.922 169.079 164.126 168.512 164.401 167.985C164.963 166.953 165.518 166.046 165.991 165.021C166.963 163.018 167.701 160.893 168.187 158.693C168.698 156.48 168.931 154.202 168.88 151.922ZM182.286 142.756C182.676 142.784 183.058 142.886 183.415 143.058C183.767 143.218 184.099 143.424 184.405 143.67C184.717 143.921 184.993 144.22 185.224 144.557C185.475 144.898 185.629 145.31 185.669 145.744C185.346 145.479 185.058 145.269 184.771 145.043L183.913 144.376C183.311 143.909 182.765 143.365 182.286 142.756ZM171.709 84.9324C171.71 84.946 171.709 84.9597 171.705 84.9728C171.702 84.9858 171.696 84.998 171.688 85.0086C171.68 85.0192 171.67 85.0279 171.659 85.0344C171.648 85.0409 171.636 85.0449 171.623 85.0463L145.283 89.0349L119.543 92.8097L119.714 123.364L119.793 138.969L119.833 154.574C119.834 154.833 119.748 155.084 119.592 155.28C119.436 155.476 119.219 155.605 118.982 155.643H118.975L83.9883 161.17L48.9819 166.561H48.9753C48.7854 166.591 48.5917 166.556 48.4209 166.461L24.3507 153.506L0.313533 140.479H0.306936C0.194666 140.418 0.100504 140.325 0.0351554 140.209C-0.0301928 140.093 -0.0641014 139.96 -0.0627025 139.824L0.306936 107.432C0.445536 96.6273 0.458742 85.8298 0.544456 75.0325C0.545101 74.9505 0.573759 74.8718 0.624942 74.8113C0.676125 74.7508 0.746219 74.7128 0.821756 74.7047L20.4039 72.4684L21.2157 72.3759L21.3939 72.3545C21.2884 72.6251 21.1827 72.8958 21.0837 73.1735L20.5094 73.2377L1.15834 75.3316C1.16494 86.0364 1.09888 96.7341 1.15834 107.432L1.29034 139.375L25.1098 151.854L48.9952 164.46L83.6914 158.94L117.833 153.641L117.873 138.969L117.959 123.364L118.137 92.1544V92.1474C118.137 91.9653 118.199 91.7896 118.311 91.6532C118.422 91.5168 118.576 91.4292 118.744 91.4067L145.164 88.0664L171.603 84.84C171.616 84.8386 171.629 84.8399 171.641 84.8437C171.653 84.8476 171.664 84.854 171.674 84.8626C171.684 84.8712 171.692 84.8818 171.698 84.8938C171.704 84.9057 171.708 84.9189 171.709 84.9324Z" fill="black"/>
<path d="M22.1267 72.269C22.219 72.5255 22.3181 72.7819 22.4104 73.0311C22.054 73.0667 21.6977 73.1095 21.3413 73.145C21.4799 72.8673 21.6185 72.5896 21.7504 72.3118L22.1267 72.269ZM22.6283 72.2119C23.2156 72.148 23.8031 72.0838 24.3904 72.0127C24.2849 72.2904 24.1792 72.5753 24.0736 72.8531C23.704 72.8887 23.3345 72.9315 22.9649 72.9741C22.8527 72.7178 22.7404 72.4684 22.6283 72.2119ZM24.9977 72.2832L25.1692 72.732C25.0504 72.7461 24.9317 72.7604 24.8195 72.7746C24.8788 72.6108 24.9382 72.447 24.9977 72.2832ZM27.2615 71.6778H27.3274L27.0304 72.5397C26.6213 72.5823 26.212 72.6251 25.8095 72.6679L25.5388 71.8774C26.1131 71.8132 26.6872 71.7419 27.2615 71.6778ZM27.6838 72.0339L27.8224 72.4542C27.7301 72.4684 27.631 72.4755 27.5387 72.4827L27.6838 72.0339ZM30.1786 71.5567L29.9081 72.2405L28.2449 72.4116L28.0138 71.6638C28.7333 71.6423 29.4592 71.6067 30.1786 71.5567ZM30.3767 71.628L30.5813 72.1693C30.4427 72.1836 30.3041 72.1978 30.1654 72.2119L30.3767 71.628ZM197.475 65.0542C197.47 65.0803 197.455 65.103 197.434 65.1175C197.413 65.1321 197.388 65.1374 197.363 65.1324L180.639 61.3221C175.095 60.0543 169.557 58.77 164.027 57.469L143.718 59.926L123.331 62.2835L102.937 64.6339L82.5365 66.8632C75.7319 67.6109 68.9272 68.2946 62.1227 68.9857L41.7022 71.044C38.5606 71.3575 35.4212 71.6756 32.284 71.9984C31.7758 72.0481 31.2677 72.098 30.7595 72.1551L30.5483 71.5283C31.1554 71.4785 31.7627 71.4215 32.3765 71.3359C32.0135 71.2862 31.6438 71.2435 31.2808 71.2007C31.6636 71.1579 32.0399 71.1082 32.416 71.0654C35.4784 70.695 38.5387 70.3223 41.5967 69.9471L61.9774 67.4757C68.7688 66.6425 75.5602 65.8161 82.3583 65.0613L102.759 62.7466L123.166 60.56L143.573 58.3805L163.987 56.308H164C164.053 56.3053 164.107 56.3101 164.159 56.3222C169.709 57.7182 175.253 59.1402 180.791 60.5885L197.403 64.9258C197.416 64.9287 197.428 64.9344 197.438 64.9425C197.449 64.9506 197.458 64.961 197.465 64.973C197.472 64.9851 197.476 64.9985 197.478 65.0124C197.48 65.0264 197.479 65.0406 197.475 65.0542ZM58.7765 133.599V158.57L110.679 151.355V127.168L58.7765 133.599ZM88.2652 144.268C84.4372 144.268 84.4438 137.858 88.2652 137.858C92.0933 137.858 92.0867 144.268 88.2652 144.268V144.268ZM58.7765 104.148V129.119L110.679 121.904V97.7169L58.7765 104.148ZM88.2652 114.818C84.4372 114.818 84.4438 108.408 88.2652 108.408C92.0933 108.408 92.0867 114.818 88.2652 114.818V114.818Z" fill="black"/>
<path d="M173.636 66.5207L173.644 66.52C174.733 66.2194 175.831 65.9726 176.924 65.6979C178.021 65.4421 179.118 65.1912 180.218 64.9575C180.276 64.945 180.336 64.9522 180.391 64.9782L180.406 64.9855C182.712 66.0815 184.995 67.2279 187.269 68.396C189.54 69.5711 191.801 70.7682 194.041 72.0146L194.059 72.0247C194.125 72.0617 194.175 72.1257 194.198 72.2027C194.221 72.2796 194.214 72.3632 194.18 72.435C194.158 72.4804 194.126 72.5191 194.087 72.5477C194.047 72.5763 194.002 72.5939 193.955 72.5988C193.015 72.6907 192.076 72.7952 191.134 72.8663C190.192 72.9403 189.252 73.0297 188.307 73.0798C189.232 72.8675 190.162 72.6948 191.091 72.5065C192.019 72.3156 192.951 72.1577 193.881 71.9873L193.795 72.5714C191.486 71.4842 189.198 70.3476 186.92 69.189C184.645 68.0234 182.379 66.836 180.136 65.5984L180.324 65.6264C179.215 65.8024 178.103 65.9608 176.991 66.1147C175.875 66.2495 174.764 66.4124 173.644 66.5212H173.644L173.636 66.5207ZM168.86 75.8202L168.852 75.8204L163.35 76.7719C161.516 77.0944 159.677 77.3641 157.841 77.6624C156.003 77.9477 154.168 78.259 152.328 78.5231L146.809 79.332C146.75 79.3399 146.69 79.3332 146.634 79.3125C144.416 78.4885 142.189 77.6928 139.981 76.8364L133.346 74.3043C133.302 74.2876 133.26 74.2615 133.225 74.2276C133.19 74.1937 133.161 74.1526 133.14 74.1067C133.12 74.0607 133.108 74.0109 133.105 73.96C133.102 73.909 133.109 73.858 133.124 73.8098C133.146 73.7443 133.183 73.6862 133.232 73.6413C133.281 73.5965 133.34 73.5664 133.404 73.5543C136.375 73.0071 139.358 72.5415 142.336 72.0384C145.315 71.5382 148.301 71.0859 151.289 70.6489C148.336 71.3081 145.38 71.9518 142.417 72.5477C139.453 73.1408 136.496 73.7713 133.525 74.3201L133.583 73.5703L140.243 76.0238C142.467 76.8293 144.671 77.6956 146.885 78.5333L146.71 78.5139L152.237 77.7698C154.079 77.5163 155.926 77.3101 157.77 77.0777C159.616 76.8585 161.458 76.6103 163.307 76.4154C165.155 76.2123 167.001 75.9958 168.852 75.8199H168.852L168.86 75.8202ZM147.423 63.1811C145.437 63.8038 143.439 64.3717 141.447 64.9631C140.948 65.1056 140.453 65.2672 139.949 65.3887L138.434 65.7304L135.41 66.4362L133.897 66.7892C133.348 66.9502 132.774 66.9873 132.211 66.8984C131.613 66.7996 131.058 66.5081 130.617 66.062C130.394 65.8193 130.222 65.527 130.114 65.2055C130.006 64.8841 129.964 64.5411 129.991 64.2004C130.117 62.9759 130.634 61.837 131.454 60.9797C131.847 60.5577 132.291 60.196 132.776 59.9048C133.014 59.7617 133.259 59.6332 133.511 59.52C133.741 59.4141 133.968 59.3008 134.192 59.1802C136.004 58.2746 137.53 56.8151 138.58 54.9826C139.074 54.0638 139.401 53.0521 139.544 52.0014C139.673 50.9694 139.674 49.8231 139.726 48.7183L140.231 35.3707L140.24 35.4831C140.19 35.3359 140.121 35.1974 140.034 35.072C139.933 34.9227 139.818 34.785 139.69 34.6613C139.411 34.4137 139.111 34.1951 138.794 34.0085C138.116 33.6224 137.39 33.3426 136.638 33.1775C135.862 33.015 135.077 32.9125 134.288 32.8708C133.493 32.823 132.694 32.8284 131.892 32.8428C132.685 32.7254 133.481 32.5961 134.288 32.5569C135.099 32.5072 135.912 32.5204 136.722 32.5964C137.555 32.683 138.372 32.8983 139.149 33.2358C139.554 33.42 139.926 33.6808 140.247 34.0061C140.614 34.3508 140.888 34.7957 141.04 35.294C141.048 35.3215 141.052 35.3502 141.051 35.3789L141.049 35.4067L140.545 48.755C140.49 49.8725 140.498 50.9595 140.353 52.1356C140.195 53.2948 139.834 54.4109 139.29 55.4248C138.159 57.4085 136.513 58.9899 134.556 59.9724C134.318 60.1004 134.077 60.2205 133.833 60.3327C133.608 60.4335 133.389 60.5481 133.176 60.6758C132.758 60.9272 132.374 61.2394 132.034 61.6038C131.358 62.3097 130.925 63.244 130.809 64.2515C130.788 64.4669 130.811 64.6847 130.877 64.8892C130.944 65.0936 131.051 65.2795 131.193 65.4334C131.514 65.7498 131.914 65.9561 132.344 66.0264C132.806 66.0973 133.276 66.0628 133.724 65.9252L135.237 65.5722L138.261 64.8664L139.772 64.5024C140.277 64.3887 140.789 64.315 141.299 64.2221C143.34 63.8725 145.376 63.4995 147.423 63.1811Z" fill="black"/>
<path d="M134.894 23.3031C135.772 24.3786 136.584 25.5182 137.659 26.6222L126.156 41.9992C125.958 27.363 116.526 26.6222 116.526 26.6222L132.03 20.2549C132.568 20.7166 133.082 21.2112 133.568 21.7362C134.029 22.2419 134.459 22.7689 134.894 23.3031Z" fill="black"/>
<path d="M142.577 26.6222H137.66C137.591 25.8332 137.392 25.0638 137.072 24.3502C136.766 23.6339 136.368 22.9674 135.891 22.37C135.408 21.7593 134.832 21.2415 134.188 20.8388C133.535 20.4253 132.786 20.2226 132.03 20.2549L134.221 15.7961L142.577 26.6222ZM126.158 42.0009C124.689 41.5122 123.319 40.7285 122.119 39.6908C120.892 38.6665 119.822 37.4399 118.949 36.0559C118.722 35.7154 118.517 35.3587 118.335 34.9881C118.152 34.6181 117.94 34.2651 117.783 33.8815C117.458 33.122 117.192 32.3347 116.987 31.5276C116.561 29.9347 116.405 28.2723 116.524 26.6196C116.914 28.1637 117.393 29.68 117.959 31.1597C118.513 32.6 119.21 33.9717 120.037 35.251C120.848 36.5471 121.772 37.7559 122.798 38.8605C123.846 39.9939 124.969 41.0435 126.158 42.0009Z" fill="black"/>
<path d="M122.127 37.0681C126.871 37.0681 126.879 29.1123 122.127 29.1123C117.384 29.1123 117.376 37.0681 122.127 37.0681ZM87.6987 69.5344L99.8272 67.2673C103.958 66.5084 108.142 65.7296 112.315 65.1467L112.329 65.1448C112.39 65.136 112.453 65.1486 112.508 65.1807L117.36 68.0038C118.973 68.9545 120.603 69.8707 122.231 70.7898C123.853 71.7215 125.5 72.5994 127.137 73.4991C128.774 74.4012 130.43 75.2606 132.075 76.1434C132.117 76.1657 132.151 76.2016 132.173 76.246C132.195 76.2904 132.203 76.341 132.196 76.3908C132.19 76.4405 132.169 76.4867 132.137 76.523C132.105 76.5593 132.063 76.5837 132.017 76.5929L132.009 76.5946C127.869 77.4025 123.726 78.1907 119.576 78.9322C115.428 79.6866 111.281 80.4439 107.123 81.1301L107.119 81.1308C107.028 81.1459 106.934 81.1286 106.853 81.0816C103.576 79.1836 100.331 77.2008 97.1186 75.2554C93.9291 73.2927 90.7901 71.373 87.6987 69.5344ZM87.7796 69.5493C91.1268 71.4216 94.4263 73.2129 97.6754 74.9611C100.902 76.7268 104.095 78.4548 107.256 80.2677L106.987 80.2192C111.135 79.4663 115.294 78.7843 119.452 78.0996C123.609 77.4019 127.772 76.7511 131.938 76.1199L131.872 76.571C130.249 75.6417 128.637 74.689 127.004 73.7789C125.373 72.8667 123.752 71.9326 122.106 71.052C120.465 70.1593 118.826 69.2635 117.171 68.4019L112.218 65.7889L112.411 65.8228C108.376 66.5923 104.352 67.1657 100.275 67.7594L94.0946 68.6311L87.7796 69.5493Z" fill="black"/>
<path d="M102.189 72.3269C103.079 72.1131 103.979 71.9483 104.884 71.833C105.742 71.9805 106.604 72.098 107.464 72.2319L112.624 73.0125L117.785 73.7932L120.365 74.1834C121.191 74.5795 122.017 74.968 122.832 75.4491C121.926 75.6701 121.033 75.7983 120.138 75.9343L117.558 75.5441L112.397 74.7635L107.236 73.9828C106.376 73.8567 105.517 73.7139 104.655 73.6013C103.813 73.2218 102.991 72.7964 102.189 72.3269ZM35.1418 74.4775L47.2703 72.2104C51.4014 71.4515 55.5849 70.6727 59.7583 70.0899L59.7716 70.0879C59.8334 70.0791 59.8962 70.0917 59.951 70.1238L64.8035 72.9469C66.4166 73.8976 68.046 74.8138 69.6737 75.7329C71.2959 76.6646 72.9434 77.5425 74.5806 78.4422C76.2167 79.3443 77.8731 80.2037 79.5185 81.0865C79.5601 81.1088 79.5942 81.1447 79.616 81.1891C79.6377 81.2335 79.6459 81.2841 79.6394 81.3338C79.633 81.3835 79.6123 81.4298 79.5801 81.4661C79.548 81.5024 79.506 81.5268 79.4603 81.536L79.4519 81.5377C75.3119 82.3456 71.1691 83.1338 67.0192 83.8752C62.8714 84.6297 58.7238 85.387 54.5658 86.0731L54.5617 86.0739C54.4707 86.089 54.3776 86.0717 54.2965 86.0246C51.0196 84.1267 47.7739 82.1439 44.5617 80.1985C41.3722 78.2358 38.2332 76.3161 35.1418 74.4775ZM35.2227 74.4924C38.5699 76.3646 41.8695 78.156 45.1185 79.9042C48.3447 81.6698 51.5378 83.3979 54.6993 85.2108L54.4303 85.1623C58.5785 84.4094 62.7371 83.7274 66.8953 83.0427C71.0517 82.345 75.2151 81.6942 79.3813 81.063L79.3148 81.5141C77.6917 80.5848 76.0797 79.6321 74.4475 78.722C72.8162 77.8098 71.1953 76.8757 69.549 75.9951C67.9085 75.1024 66.2695 74.2066 64.614 73.345L59.6614 70.732L59.8538 70.7659C55.8192 71.5354 51.7949 72.1088 47.7181 72.7025L41.5377 73.5741L35.2227 74.4924Z" fill="black"/>
<path d="M65.1407 73.3455C66.6276 73.0175 68.1172 72.7083 69.6094 72.4178C71.1029 72.1373 72.5926 71.8292 74.0895 71.5717C77.0822 71.0495 80.0699 70.4924 83.0765 70.0688L83.0923 70.0667C83.1574 70.0574 83.2236 70.0707 83.2812 70.1048L88.118 72.9614C89.7295 73.9149 91.3594 74.8303 92.9909 75.7419C94.6307 76.6362 96.2705 77.5305 97.9273 78.3893L102.886 80.9892C102.947 81.0213 102.997 81.0734 103.03 81.1381C103.062 81.2029 103.074 81.2769 103.064 81.3495C103.055 81.4222 103.025 81.4898 102.978 81.5427C102.931 81.5956 102.869 81.6311 102.802 81.6441L102.789 81.6465L96.5719 82.8077C94.4989 83.1909 92.4253 83.5695 90.348 83.9246C88.2698 84.2736 86.192 84.6237 84.1089 84.9388C82.0263 85.2579 79.9463 85.5946 77.8592 85.8827L77.8449 85.8846C77.7951 85.8915 77.7445 85.8809 77.7008 85.8542C75.928 84.7716 74.1644 83.6705 72.41 82.5509C72.4009 82.5451 72.3943 82.5357 72.3915 82.5247C72.3886 82.5138 72.3898 82.5021 72.3948 82.492C72.3997 82.482 72.4081 82.4744 72.4181 82.4708C72.4281 82.4672 72.439 82.4679 72.4485 82.4728C74.289 83.4182 76.1187 84.3857 77.9377 85.3751L77.7794 85.3466C79.8453 84.9157 81.9186 84.5334 83.989 84.1335C86.0591 83.7295 88.1342 83.3609 90.2092 82.9907C92.2851 82.6269 94.3645 82.2866 96.4446 81.9508L102.687 80.955L102.59 81.6123L97.7433 78.7759C96.1316 77.8225 94.5029 76.9045 92.8743 75.9866C91.2375 75.0862 89.5988 74.1893 87.9421 73.3309L82.9737 70.7508L83.178 70.7868C80.1912 71.3505 77.1855 71.7803 74.1847 72.2453C72.6849 72.4814 71.1778 72.6668 69.6746 72.88C68.1704 73.0846 66.6632 73.2689 65.153 73.4329C65.1426 73.4341 65.1321 73.4308 65.1238 73.4239C65.1155 73.4169 65.11 73.4068 65.1084 73.3956C65.1068 73.3843 65.1092 73.3729 65.1153 73.3636C65.1213 73.3542 65.1303 73.3478 65.1406 73.3455L65.1407 73.3455ZM166.376 30.575C166.033 31.6221 165.644 32.6477 165.254 33.6733L163.703 36.4937L160.727 41.921H159.578L159.756 41.6003L162.852 35.9524L164.403 33.1248C165.049 32.2702 165.69 31.4084 166.376 30.575ZM159.129 34.1219L158.76 37.6119L158.304 41.9209H157.308L157.776 37.4907L158.139 34.0008C158.41 32.8542 158.674 31.7074 159.004 30.575C159.083 31.7645 159.109 32.9396 159.129 34.1219ZM155.044 41.9209H155.671L155.321 39.2785L155.037 37.1561L154.602 33.8228C154.305 32.7402 154.014 31.6505 153.665 30.5751C153.618 31.5081 153.605 32.434 153.612 33.3599V33.9795L153.737 34.8983L154.061 37.3056L154.674 41.9209H155.044ZM152.952 41.9209H151.955L151.335 37.3057L150.893 33.9795C150.886 32.8471 150.886 31.7146 150.945 30.575C151.295 31.6506 151.586 32.7402 151.883 33.8228L152.318 37.1562L152.741 40.3327L152.952 41.9209Z" fill="black"/>
<path d="M153.737 34.2715V34.8982L153.73 37.5477V41.9209H152.74V34.2716C152.886 33.1819 153.031 32.0921 153.235 30.9952C153.381 31.7859 153.506 32.5764 153.612 33.3599C153.658 33.6661 153.698 33.9653 153.737 34.2715ZM156.786 34.8198L156.443 38.0747L156.041 41.9209H155.044L155.321 39.2785L155.46 37.9537L155.796 34.6988C156.054 33.6304 156.311 32.5621 156.628 31.508C156.72 32.612 156.753 33.716 156.786 34.8198ZM149.896 46.2797V50.1258C150.068 50.1044 150.239 50.0902 150.411 50.0688L151.896 46.472C151.229 46.4221 150.563 46.3652 149.896 46.2797ZM152.08 46.5361L150.49 50.0617C151.447 49.9547 152.411 49.8836 153.368 49.8408L152.08 46.5361ZM152.292 46.5005L153.651 49.6628L154.734 46.6075C153.922 46.5932 153.104 46.5504 152.292 46.5005L152.292 46.5005ZM155.077 46.9137L153.962 49.8194C154.668 49.791 155.367 49.7767 156.074 49.7697L155.077 46.9137ZM156.483 46.6358C156.139 46.6287 155.79 46.6216 155.447 46.6216L156.456 49.3067L157.314 46.6216C157.037 46.6286 156.76 46.6286 156.483 46.6358L156.483 46.6358ZM157.757 47.3124L156.892 49.7698C157.446 49.7767 158.001 49.784 158.555 49.8052C158.278 48.9719 158.014 48.1458 157.757 47.3124V47.3124ZM158.219 46.6075C158.502 47.455 158.773 48.3025 159.037 49.15C159.393 48.274 159.743 47.4051 160.106 46.5362C159.479 46.5716 158.852 46.5932 158.219 46.6074L158.219 46.6075ZM160.476 46.9351C160.146 47.9037 159.803 48.8653 159.459 49.8338C160.218 49.8623 160.977 49.9122 161.73 49.9833C161.294 48.9719 160.885 47.9606 160.476 46.935L160.476 46.9351ZM149.896 41.921V46.2798C152.083 46.0225 154.283 45.9036 156.483 45.9237C156.885 45.9237 157.288 45.9308 157.691 45.9379C157.749 45.9201 157.811 45.9201 157.869 45.9379C158.714 45.9521 159.552 45.9878 160.39 46.0375C160.411 46.0295 160.433 46.0248 160.456 46.0235C160.49 46.0237 160.524 46.0309 160.555 46.0448C161.393 46.1017 162.231 46.173 163.07 46.2797V41.921L149.896 41.921ZM151.434 45.1047C151.177 45.0955 150.933 44.9789 150.755 44.7796C150.576 44.5802 150.476 44.3137 150.476 44.0363C150.476 43.759 150.576 43.4924 150.755 43.2931C150.933 43.0937 151.177 42.9772 151.434 42.968C151.69 42.9777 151.933 43.0945 152.112 43.2938C152.29 43.4931 152.39 43.7593 152.39 44.0363C152.39 44.3133 152.29 44.5795 152.112 44.7788C151.933 44.9781 151.69 45.0948 151.434 45.1045L151.434 45.1047ZM154.998 45.1047C154.741 45.0955 154.497 44.9789 154.319 44.7796C154.14 44.5802 154.04 44.3137 154.04 44.0363C154.04 43.759 154.14 43.4924 154.319 43.2931C154.497 43.0937 154.741 42.9772 154.998 42.968C155.254 42.9777 155.497 43.0945 155.676 43.2938C155.854 43.4931 155.954 43.7593 155.954 44.0363C155.954 44.3133 155.854 44.5795 155.676 44.7788C155.497 44.9781 155.254 45.0948 154.998 45.1045L154.998 45.1047ZM158.443 44.9765C158.186 44.9674 157.943 44.8508 157.764 44.6514C157.585 44.4521 157.485 44.1856 157.485 43.9082C157.485 43.6308 157.585 43.3643 157.764 43.1649C157.943 42.9656 158.186 42.849 158.443 42.8398C158.7 42.8496 158.943 42.9663 159.121 43.1656C159.299 43.3649 159.399 43.6311 159.399 43.9081C159.399 44.1852 159.299 44.4514 159.121 44.6506C158.943 44.8499 158.7 44.9667 158.443 44.9764L158.443 44.9765ZM161.829 45.1047C161.572 45.0955 161.328 44.9789 161.15 44.7796C160.971 44.5802 160.871 44.3137 160.871 44.0363C160.871 43.759 160.971 43.4924 161.15 43.2931C161.328 43.0937 161.572 42.9772 161.829 42.968C162.085 42.9777 162.328 43.0945 162.507 43.2938C162.685 43.4931 162.785 43.7593 162.785 44.0363C162.785 44.3133 162.685 44.5795 162.507 44.7788C162.328 44.9781 162.085 45.0948 161.829 45.1045L161.829 45.1047ZM160.766 46.4935C161.136 47.6544 161.492 48.8154 161.822 49.9907C162.238 50.0333 162.654 50.0689 163.07 50.126V46.2799C162.304 46.3723 161.538 46.4434 160.766 46.4934L160.766 46.4935ZM152.081 46.5363L150.49 50.0619C151.447 49.9549 152.411 49.8838 153.368 49.841L152.081 46.5363ZM152.292 46.5007L153.651 49.663L154.734 46.6076C153.922 46.5932 153.104 46.5504 152.292 46.5005L152.292 46.5007ZM155.077 46.9139L153.962 49.8196C154.668 49.7911 155.367 49.7769 156.074 49.7699L155.077 46.9139ZM156.483 46.636C156.14 46.6289 155.79 46.6217 155.447 46.6217L156.456 49.3068L157.314 46.6217C157.037 46.6286 156.76 46.6286 156.483 46.6358L156.483 46.636ZM157.757 47.3126L156.892 49.7699C157.446 49.7769 158.001 49.7842 158.555 49.8054C158.278 48.9719 158.014 48.1458 157.757 47.3124L157.757 47.3126ZM158.219 46.6077C158.502 47.4552 158.773 48.3027 159.037 49.1502C159.393 48.2742 159.743 47.4052 160.106 46.5364C159.479 46.5716 158.852 46.5932 158.219 46.6074L158.219 46.6077ZM160.476 46.9353C160.146 47.9038 159.803 48.8654 159.46 49.8339C160.218 49.8624 160.977 49.9124 161.73 49.9835C161.294 48.9719 160.885 47.9606 160.476 46.935L160.476 46.9353ZM152.081 46.5364L150.49 50.062C151.447 49.955 152.411 49.8839 153.368 49.8411L152.081 46.5364ZM152.292 46.5008L153.651 49.663L154.734 46.6077C153.922 46.5932 153.104 46.5504 152.292 46.5005L152.292 46.5008ZM155.077 46.9139L153.962 49.8197C154.668 49.7912 155.367 49.777 156.074 49.77L155.077 46.9139ZM156.483 46.6361C156.14 46.6289 155.79 46.6218 155.447 46.6218L156.456 49.3069L157.314 46.6218C157.037 46.6286 156.76 46.6286 156.483 46.6358L156.483 46.6361ZM157.757 47.3127L156.892 49.77C157.446 49.777 158.001 49.7843 158.555 49.8055C158.278 48.9719 158.014 48.1458 157.757 47.3124L157.757 47.3127ZM158.219 46.6078C158.502 47.4553 158.773 48.3028 159.037 49.1503C159.393 48.2743 159.743 47.4053 160.106 46.5365C159.479 46.5716 158.852 46.5932 158.219 46.6074L158.219 46.6078ZM160.476 46.9354C160.146 47.9039 159.803 48.8655 159.46 49.834C160.219 49.8625 160.977 49.9125 161.73 49.9836C161.294 48.9719 160.885 47.9606 160.476 46.935L160.476 46.9354ZM149.896 54.2926V55.1758C149.896 57.0609 150.59 58.8689 151.825 60.2019C153.061 61.5349 154.736 62.2838 156.483 62.2838C158.23 62.2838 159.905 61.5349 161.14 60.2019C162.376 58.8689 163.07 57.0609 163.07 55.1758V54.2926C158.689 54.7674 154.276 54.7674 149.896 54.2926ZM159.176 50.4252C159.133 50.4558 159.085 50.475 159.034 50.4812C158.984 50.4874 158.933 50.4804 158.885 50.4609C158.872 50.4522 158.858 50.4427 158.846 50.4324C158.06 50.4609 157.268 50.4751 156.483 50.4823C154.283 50.4952 152.084 50.3763 149.896 50.1262V54.2926C154.276 53.8178 158.689 53.8178 163.07 54.2926V50.1258C161.769 50.2896 160.476 50.375 159.175 50.4249L159.176 50.4252ZM151.731 53.3098C151.474 53.3006 151.23 53.184 151.052 52.9847C150.873 52.7853 150.773 52.5188 150.773 52.2414C150.773 51.9641 150.873 51.6975 151.052 51.4982C151.23 51.2988 151.474 51.1823 151.731 51.1731C151.987 51.1835 152.229 51.3005 152.407 51.4997C152.585 51.699 152.684 51.9648 152.684 52.2413C152.684 52.5179 152.585 52.7837 152.407 52.9829C152.229 53.1821 151.987 53.2991 151.731 53.3094L151.731 53.3098ZM154.76 53.2456C154.503 53.2364 154.26 53.1199 154.081 52.9205C153.902 52.7212 153.802 52.4546 153.802 52.1773C153.802 51.8999 153.902 51.6334 154.081 51.434C154.26 51.2347 154.503 51.1181 154.76 51.1089C155.016 51.1193 155.259 51.2364 155.437 51.4356C155.614 51.6348 155.714 51.9006 155.714 52.1772C155.714 52.4538 155.614 52.7195 155.437 52.9187C155.259 53.1179 155.016 53.235 154.76 53.2453L154.76 53.2456ZM158.087 53.2456C157.83 53.2364 157.586 53.1199 157.408 52.9205C157.229 52.7212 157.129 52.4546 157.129 52.1773C157.129 51.8999 157.229 51.6334 157.408 51.434C157.586 51.2347 157.83 51.1181 158.087 51.1089C158.343 51.1193 158.585 51.2364 158.763 51.4356C158.941 51.6348 159.04 51.9006 159.04 52.1772C159.04 52.4537 158.941 52.7195 158.763 52.9187C158.585 53.1179 158.343 53.235 158.087 53.2453L158.087 53.2456ZM161.413 53.1175C161.156 53.1083 160.913 52.9917 160.734 52.7924C160.555 52.593 160.455 52.3265 160.455 52.0491C160.455 51.7717 160.555 51.5052 160.734 51.3059C160.913 51.1065 161.156 50.9899 161.413 50.9808C161.669 50.9911 161.912 51.1082 162.089 51.3074C162.267 51.5066 162.367 51.7724 162.367 52.049C162.367 52.3256 162.267 52.5914 162.089 52.7906C161.912 52.9897 161.669 53.1068 161.413 53.1171L161.413 53.1175ZM161.73 49.9835C161.294 48.9722 160.885 47.9609 160.476 46.9354C160.146 47.9039 159.803 48.8655 159.46 49.834C160.218 49.8622 160.977 49.9121 161.73 49.9832L161.73 49.9835ZM160.106 46.5365C159.479 46.5719 158.852 46.5935 158.219 46.6077C158.502 47.4553 158.773 48.3028 159.037 49.1503C159.393 48.2739 159.743 47.405 160.106 46.5361L160.106 46.5365ZM158.555 49.8055C158.278 48.9722 158.014 48.1461 157.757 47.3127L156.892 49.77C157.446 49.7766 158.001 49.7839 158.555 49.8052L158.555 49.8055ZM157.315 46.6218C157.037 46.6289 156.76 46.6289 156.483 46.6361C156.14 46.6289 155.79 46.6218 155.447 46.6218L156.456 49.3069L157.315 46.6218ZM156.074 49.77L155.077 46.9139L153.962 49.8197C154.668 49.7909 155.367 49.7766 156.074 49.7697L156.074 49.77ZM154.734 46.6077C153.922 46.5935 153.104 46.5507 152.292 46.5008L153.651 49.663L154.734 46.6077ZM152.081 46.5364L150.49 50.062C151.447 49.955 152.411 49.8839 153.368 49.8411L152.081 46.5364ZM160.476 46.9353C160.146 47.9038 159.803 48.8654 159.46 49.8339C160.218 49.8624 160.977 49.9124 161.73 49.9835C161.294 48.9719 160.885 47.9606 160.476 46.935L160.476 46.9353ZM158.219 46.6077C158.502 47.4552 158.773 48.3027 159.037 49.1502C159.393 48.2742 159.743 47.4052 160.106 46.5364C159.479 46.5716 158.852 46.5932 158.219 46.6074L158.219 46.6077ZM157.757 47.3126L156.892 49.7699C157.446 49.7769 158.001 49.7842 158.555 49.8054C158.278 48.9719 158.014 48.1458 157.757 47.3124L157.757 47.3126ZM156.483 46.636C156.14 46.6289 155.79 46.6217 155.447 46.6217L156.456 49.3068L157.314 46.6217C157.037 46.6286 156.76 46.6286 156.483 46.6358L156.483 46.636ZM155.077 46.9139L153.962 49.8196C154.668 49.7911 155.367 49.7769 156.074 49.7699L155.077 46.9139ZM152.292 46.5007L153.651 49.663L154.734 46.6076C153.922 46.5932 153.104 46.5504 152.292 46.5005L152.292 46.5007ZM152.081 46.5363L150.49 50.0619C151.447 49.9549 152.411 49.8838 153.368 49.841L152.081 46.5363ZM160.476 46.9352C160.146 47.9037 159.803 48.8654 159.46 49.8339C160.218 49.8623 160.977 49.9123 161.73 49.9834C161.294 48.9719 160.885 47.9606 160.476 46.935L160.476 46.9352ZM158.219 46.6076C158.502 47.4551 158.773 48.3026 159.037 49.1501C159.393 48.2741 159.743 47.4052 160.106 46.5363C159.479 46.5716 158.852 46.5932 158.219 46.6074L158.219 46.6076ZM157.757 47.3125L156.892 49.7698C157.446 49.7768 158.001 49.7841 158.555 49.8053C158.278 48.9719 158.014 48.1458 157.757 47.3124L157.757 47.3125ZM156.483 46.6359C156.14 46.6288 155.79 46.6216 155.447 46.6216L156.456 49.3067L157.314 46.6216C157.037 46.6286 156.76 46.6286 156.483 46.6358L156.483 46.6359ZM155.077 46.9138L153.962 49.8195C154.668 49.791 155.367 49.7768 156.074 49.7698L155.077 46.9138ZM152.292 46.5006L153.651 49.6629L154.734 46.6075C153.922 46.5932 153.104 46.5504 152.292 46.5005L152.292 46.5006ZM152.081 46.5362L150.49 50.0618C151.447 49.9548 152.411 49.8837 153.368 49.8409L152.081 46.5362ZM42.6847 163.383C42.8072 165.142 42.8699 166.9 42.9561 168.659C43.046 170.418 43.0866 172.177 43.1454 173.935C43.1824 175.694 43.2426 177.453 43.2604 179.212C43.2814 180.97 43.3231 182.729 43.3234 184.488L42.8536 183.823L47.4463 185.161L47.1181 185.155L51.6948 183.985L51.212 184.647C51.2518 181.383 51.3071 178.119 51.4028 174.855C51.4605 173.222 51.503 171.59 51.5887 169.958C51.6677 168.326 51.7299 166.694 51.8438 165.062C51.9577 166.694 52.0199 168.326 52.0989 169.958C52.1846 171.59 52.2272 173.222 52.2848 174.855C52.3805 178.119 52.4358 181.383 52.4756 184.647C52.4775 184.798 52.4319 184.946 52.3464 185.065C52.2609 185.185 52.1404 185.27 52.0045 185.307L51.9927 185.31L47.4278 186.532C47.3197 186.561 47.2067 186.559 47.0994 186.527L42.5162 185.153C42.3815 185.112 42.2627 185.025 42.1779 184.905C42.0931 184.785 42.0468 184.639 42.0461 184.488C42.0465 182.729 42.0882 180.97 42.1091 179.212C42.127 177.453 42.1871 175.694 42.2242 173.936C42.283 172.177 42.3236 170.418 42.4135 168.659C42.4997 166.9 42.5624 165.142 42.6847 163.383Z" fill="black"/>
<path d="M47.2642 164.98C47.5877 168.457 47.6631 171.934 47.6778 175.412C47.6678 178.889 47.5955 182.366 47.2729 185.844C46.9474 182.367 46.8721 178.889 46.8592 175.412C46.871 171.935 46.9435 168.457 47.2642 164.98ZM0.745927 139.894C0.87532 141.653 0.938321 143.412 1.03065 145.17C1.11395 146.929 1.17099 148.688 1.22062 150.446C1.31521 153.964 1.37998 157.481 1.39014 160.999L0.916083 160.328C2.44813 160.77 3.98051 161.21 5.50563 161.679L5.18095 161.674C6.70736 161.287 8.23006 160.885 9.76179 160.521L9.29805 161.158C9.32431 159.747 9.33157 158.336 9.37362 156.925C9.41407 155.514 9.43598 154.103 9.49302 152.691C9.53895 151.28 9.59341 149.869 9.67011 148.458C9.74007 147.047 9.80159 145.636 9.90507 144.225C10.0084 145.636 10.0699 147.047 10.14 148.458C10.2166 149.869 10.271 151.28 10.317 152.691C10.374 154.103 10.3959 155.514 10.4364 156.925C10.4784 158.336 10.4857 159.747 10.5121 161.158C10.5147 161.301 10.4729 161.44 10.3934 161.554C10.3138 161.669 10.2011 161.751 10.0732 161.788L10.0481 161.795C8.53259 162.229 7.00828 162.625 5.48735 163.036C5.3852 163.064 5.27818 163.063 5.17619 163.035L5.1625 163.031C3.629 162.595 2.10274 162.132 0.575861 161.669L0.570211 161.668C0.435159 161.627 0.316264 161.539 0.231681 161.418C0.147099 161.298 0.101485 161.15 0.101808 160.999C0.111959 157.481 0.176725 153.964 0.27131 150.446C0.320942 148.688 0.377984 146.929 0.461296 145.17C0.553537 143.412 0.61654 141.653 0.745927 139.894Z" fill="black"/>
<path d="M5.3255 141.491C5.64906 144.968 5.72446 148.445 5.73913 151.923C5.72898 155.4 5.65663 158.877 5.33404 162.355C5.00855 158.878 4.93346 155.4 4.92041 151.923C4.93218 148.446 5.00484 144.969 5.3255 141.491ZM109.856 155.851C109.967 157.415 110.029 158.978 110.105 160.542C110.188 162.105 110.234 163.669 110.288 165.232C110.384 168.359 110.442 171.486 110.48 174.613L110.136 174.012L114.278 176.22L113.812 176.17C115.43 175.673 117.059 175.223 118.682 174.747L118.211 175.412C118.212 173.686 118.251 171.961 118.273 170.236C118.291 168.51 118.35 166.785 118.388 165.06C118.446 163.334 118.489 161.609 118.578 159.884C118.665 158.158 118.727 156.433 118.851 154.707C118.974 156.433 119.037 158.158 119.124 159.884C119.213 161.609 119.255 163.334 119.313 165.06C119.351 166.785 119.41 168.51 119.428 170.236C119.45 171.961 119.49 173.686 119.49 175.412C119.49 175.563 119.443 175.71 119.358 175.83C119.274 175.95 119.154 176.037 119.02 176.077C117.399 176.56 115.784 177.068 114.158 177.531L114.147 177.533C113.995 177.577 113.832 177.558 113.691 177.481L109.576 175.215L109.566 175.209C109.464 175.153 109.379 175.068 109.32 174.962C109.262 174.857 109.231 174.736 109.232 174.613C109.271 171.486 109.328 168.359 109.425 165.232C109.479 163.669 109.525 162.105 109.608 160.542C109.684 158.978 109.746 157.415 109.856 155.851Z" fill="black"/>
<path d="M114.353 155.275C114.614 158.878 114.627 162.475 114.578 166.071C114.506 169.667 114.37 173.261 113.985 176.85C113.722 173.248 113.71 169.651 113.76 166.055C113.835 162.459 113.97 158.865 114.353 155.275ZM163.077 119.419C162.423 119.378 161.781 119.214 161.179 118.933C159.38 118.147 157.772 116.925 156.481 115.361C157.081 115.609 157.664 115.903 158.226 116.24C158.788 116.556 159.327 116.907 159.869 117.247C160.402 117.606 160.94 117.95 161.467 118.32C162 118.679 162.518 119.057 163.077 119.419ZM28.1523 35.7743C28.6864 36.7205 29.3247 37.5934 30.0532 38.3741C29.3152 38.4015 28.5825 38.2301 27.9214 37.8754C27.4438 37.6098 27.0405 37.2115 26.7532 36.7216C26.473 36.2249 26.3183 35.6576 26.3044 35.0763C26.2909 34.2809 26.4634 33.4946 26.8059 32.7901C27.1389 33.8409 27.5912 34.8433 28.1523 35.7743ZM30.5614 36.0878C30.5745 36.8841 30.3996 37.6709 30.0532 38.3741C29.7202 37.3232 29.2679 36.3209 28.7068 35.3898C28.171 34.4449 27.5329 33.5722 26.8059 32.7901C27.5426 32.7617 28.2739 32.9357 28.9312 33.2958C29.4089 33.5608 29.8139 33.9561 30.1059 34.4426C30.3921 34.9368 30.5494 35.5052 30.5614 36.0878ZM26.3901 42.569C26.9245 43.5169 27.5651 44.3901 28.2976 45.1688C27.5596 45.1971 26.8266 45.0257 26.1657 44.6701C25.6863 44.4045 25.2809 44.0064 24.9909 43.5163C24.7108 43.0196 24.5561 42.4523 24.5421 41.871C24.5287 41.0756 24.7012 40.2893 25.0437 39.5848C25.3795 40.6344 25.8316 41.6364 26.3901 42.569ZM28.7991 42.8824C28.8119 43.6778 28.6395 44.4639 28.2976 45.1688C27.9589 44.1204 27.507 43.1187 26.9512 42.1844C26.4131 41.2394 25.7728 40.3667 25.0437 39.5848C25.7805 39.5556 26.5119 39.7296 27.1689 40.0905C27.6513 40.3505 28.0583 40.7483 28.3457 41.2405C28.6331 41.7328 28.79 42.3007 28.7991 42.8824L28.7991 42.8824ZM24.4035 50.0474C24.9396 50.9941 25.58 51.867 26.3109 52.6472C25.5719 52.6772 24.8382 52.503 24.1791 52.1413C23.6987 51.8807 23.2928 51.4844 23.0044 50.9948C22.7242 50.498 22.5694 49.9308 22.5555 49.3495C22.5414 48.5539 22.7139 47.7674 23.0571 47.0632C23.3929 48.1128 23.845 49.1148 24.4035 50.0474Z" fill="black"/>
<path d="M26.8128 50.3536C26.8263 51.1514 26.6538 51.9401 26.311 52.6472C25.9731 51.5972 25.5188 50.5952 24.9582 49.6628C24.4224 48.718 23.7842 47.8453 23.0573 47.0632C23.794 47.0339 24.5255 47.208 25.1825 47.5689C25.6602 47.8338 26.0653 48.2292 26.3573 48.7157C26.6425 49.2077 26.7998 49.7734 26.8128 50.3536ZM23.4335 58.0101C23.9698 58.9587 24.6102 59.834 25.3408 60.617C24.6019 60.647 23.8682 60.473 23.209 60.1113C22.7301 59.8473 22.3263 59.4484 22.0405 58.9569C21.7547 58.4653 21.5974 57.8994 21.5854 57.3193C21.5746 56.5241 21.7469 55.7385 22.087 55.033C22.4256 56.0791 22.8776 57.0784 23.4335 58.0101Z" fill="black"/>
<path d="M25.8423 58.3235C25.8592 59.1217 25.6865 59.9112 25.3407 60.617C24.6441 58.5231 23.5338 56.6178 22.0869 55.0331C22.8236 55.0038 23.5551 55.1779 24.2121 55.5387C24.6925 55.7995 25.0985 56.1958 25.3869 56.6855C25.6759 57.1757 25.8335 57.7426 25.8423 58.3235ZM23.1436 62.8768C23.8805 62.8499 24.6118 63.0235 25.2703 63.3816C25.7494 63.6459 26.155 64.0427 26.4456 64.5315C26.7309 65.0236 26.8881 65.5896 26.9004 66.17C26.9144 66.9671 26.7405 67.755 26.3951 68.4597C25.6568 68.4899 24.9235 68.3173 24.264 67.9581C23.7848 67.6943 23.3803 67.296 23.0932 66.805C22.8111 66.3105 22.6557 65.744 22.643 65.1634C22.6294 64.3679 22.8016 63.5816 23.1436 62.8768ZM32.5677 37.8684C31.6845 38.3182 30.8331 38.8371 30.0201 39.421C30.1333 38.6642 30.3918 37.9412 30.7791 37.2986C31.0459 36.8639 31.4118 36.5107 31.8418 36.2728C32.2594 36.0522 32.7249 35.9586 33.1882 36.0023C33.8696 36.0758 34.5395 36.2433 35.1814 36.5008L32.5677 37.8684Z" fill="black"/>
<path d="M34.8119 38.8654C34.5346 39.3935 34.1178 39.8205 33.6147 40.092C33.1116 40.3634 32.545 40.467 31.9871 40.3895C31.2582 40.2797 30.5748 39.9432 30.0203 39.421C30.5181 39.3726 31.0095 39.2652 31.4855 39.1005C31.9574 38.9379 32.4183 38.7404 32.8649 38.5093C33.3122 38.2713 33.7386 37.9899 34.1387 37.6687C34.5489 37.3506 34.9022 36.9549 35.1815 36.5007C35.3394 37.3111 35.2073 38.1558 34.8119 38.8654ZM31.5383 44.2784C30.4492 44.7057 29.3404 45.0832 28.2251 45.5888C28.545 44.8243 28.9976 44.1329 29.5583 43.552C29.9687 43.1347 30.4538 42.8123 30.9838 42.6046C31.4863 42.4083 32.0219 42.3306 32.5546 42.3767C33.2895 42.4563 34.0178 42.5968 34.7328 42.7969C33.7113 43.3932 32.6422 43.8891 31.5383 44.2784Z" fill="black"/>
<path d="M33.9868 45.361C33.5549 45.929 32.9896 46.3615 32.3499 46.6133C31.7102 46.8651 31.0196 46.927 30.3502 46.7924C29.5463 46.6293 28.8061 46.2101 28.225 45.5888C28.8268 45.6142 29.4292 45.5641 30.0202 45.4392C30.6105 45.3283 31.1912 45.1639 31.7559 44.9478C32.3283 44.7359 32.8772 44.4565 33.3927 44.1146C33.9194 43.7806 34.3758 43.3318 34.7327 42.7969C34.7789 43.2567 34.7365 43.7218 34.6082 44.1631C34.4798 44.6043 34.2682 45.0122 33.9868 45.361ZM30.2973 49.8194C29.2084 50.2468 28.0995 50.6243 26.9841 51.13C27.3038 50.3635 27.7589 49.6715 28.3239 49.0929C28.7311 48.6745 29.2143 48.352 29.743 48.1458C30.2455 47.9495 30.7811 47.8717 31.3137 47.9178C32.0487 47.9974 32.7768 48.1379 33.4918 48.3381C32.4703 48.9344 31.4012 49.4302 30.2973 49.8194Z" fill="black"/>
<path d="M32.7459 50.9021C32.314 51.4702 31.7487 51.9027 31.1091 52.1545C30.4694 52.4064 29.7788 52.4682 29.1094 52.3337C28.3055 52.1706 27.5652 51.7513 26.9841 51.1301C27.5859 51.1555 28.1884 51.1053 28.7794 50.9805C29.3698 50.8696 29.9504 50.7051 30.5151 50.4889C31.0875 50.277 31.6364 49.9976 32.1519 49.6557C32.6786 49.3218 33.1349 48.8731 33.4918 48.3381C33.538 48.7979 33.4956 49.263 33.3673 49.7043C33.2389 50.1455 33.0274 50.5533 32.7459 50.9021ZM29.2544 56.6071C28.1523 57.1484 26.9973 57.59 25.8423 58.1454C26.1653 57.36 26.6194 56.6453 27.1821 56.0372C27.5877 55.595 28.0639 55.2356 28.588 54.9762C29.0695 54.7465 29.5866 54.6161 30.1126 54.5916C30.6801 54.5345 31.2608 54.6556 32.2839 54.506C31.877 54.9963 31.3975 55.4103 30.8649 55.7311C30.3467 56.0612 29.8086 56.3538 29.2544 56.6071Z" fill="black"/>
<path d="M32.4754 55.2823C32.483 55.535 32.4675 55.7878 32.4291 56.0372C32.3362 56.4975 32.1638 56.9349 31.9209 57.3264C31.4951 58.0145 30.8949 58.5559 30.1918 58.8861C29.5392 59.1977 28.8221 59.3181 28.1127 59.2353C27.2706 59.1302 26.4785 58.7499 25.8423 58.1454C26.4764 58.1451 27.1081 58.0614 27.7234 57.8962C28.3416 57.7451 28.9449 57.5304 29.5252 57.2551C30.1174 56.9825 30.6708 56.6204 31.1686 56.1798C31.6879 55.7556 32.0766 55.1722 32.284 54.506C32.3337 54.631 32.3756 54.7595 32.4095 54.8906C32.4383 55.0197 32.4603 55.1505 32.4754 55.2823ZM25.8159 66.2579C25.8519 65.474 26.0109 64.7024 26.2863 63.976C26.4668 63.4971 26.7379 63.0639 27.0821 62.7043C27.3916 62.3994 27.7644 62.1791 28.1691 62.0619C28.808 61.9328 29.4257 61.7027 30.0023 61.3791C30.0981 61.4559 30.1894 61.5392 30.2754 61.6284C30.3527 61.7229 30.4248 61.8222 30.4914 61.9258C30.6032 62.1328 30.6905 62.3542 30.7511 62.5848C30.8488 63.0166 30.8568 63.4663 30.7746 63.9018C30.6423 64.6518 30.2874 65.335 29.7635 65.8481C29.2911 66.3191 28.6974 66.6242 28.0608 66.7231C27.2855 66.838 26.4967 66.6746 25.8159 66.2579ZM32.1982 31.3941C31.8142 32.5332 31.5529 33.7162 31.4195 34.9197C30.9404 34.2656 30.6226 33.4914 30.4954 32.6691C30.4024 32.0464 30.4499 31.4087 30.634 30.8101C30.8254 30.2128 31.1521 29.6766 31.5845 29.2503C32.1558 28.6907 32.8478 28.294 33.5973 28.0964C33.0167 29.1349 32.5473 30.2413 32.1982 31.3941Z" fill="black"/>
<path d="M34.3827 32.206C34.1877 32.8011 33.8588 33.3346 33.4257 33.7588C32.8583 34.322 32.1681 34.7213 31.4194 34.9197C31.9949 33.8783 32.464 32.7726 32.8185 31.6221C33.2018 30.4828 33.4631 29.2999 33.5973 28.0964C34.0778 28.7504 34.3979 29.5245 34.528 30.3472C34.622 30.9703 34.5721 31.6087 34.3827 32.206Z" fill="black"/>
<path d="M23.1438 62.8767C23.8736 63.6581 24.5132 64.5318 25.0487 65.4789C25.6085 66.4095 26.0606 67.4106 26.3951 68.4598C25.6642 67.6794 25.0245 66.8055 24.4902 65.8576C23.9316 64.9262 23.4796 63.9253 23.1438 62.8767ZM25.8159 66.2579C26.6196 65.4589 27.4459 64.7732 28.1995 64.0142C28.5811 63.6512 28.9346 63.255 29.2564 62.8297C29.591 62.4038 29.8444 61.9108 30.0023 61.379C30.0946 61.9858 29.9829 62.6083 29.6875 63.134C29.4164 63.6621 29.0643 64.1368 28.6462 64.538C28.2411 64.9359 27.7964 65.2842 27.3203 65.5766C26.8498 65.8763 26.3437 66.1055 25.8159 66.2579Z" fill="white"/>
<path d="M22.3245 71.5425C22.4302 71.7633 22.5291 71.9913 22.6282 72.2119C22.7404 72.4684 22.8527 72.7178 22.9648 72.9741C23.1627 73.4229 23.3607 73.8644 23.5521 74.3132C23.7237 73.8218 23.902 73.3373 24.0736 72.8531C24.1791 72.5754 24.2848 72.2904 24.3903 72.0127C24.43 71.8917 24.4762 71.7776 24.5223 71.6566C23.7898 71.6352 23.0571 71.5995 22.3245 71.5425ZM25.1691 72.732L24.9976 72.2832C24.9382 72.447 24.8788 72.6108 24.8194 72.7746C24.562 73.4799 24.3045 74.1849 24.0339 74.8828C24.6807 74.8545 25.3277 74.8331 25.9744 74.826L25.1691 72.732ZM27.2614 71.6778C26.9445 71.6778 26.6277 71.6851 26.3044 71.692C26.0271 71.6851 25.7499 71.6851 25.4662 71.6778L25.5387 71.8774L25.8094 72.6679L26.3967 74.3559L27.0303 72.5398L27.3273 71.6778L27.2614 71.6778ZM27.8223 72.4542L27.6837 72.0339L27.5385 72.4827L26.7926 74.833C27.4065 74.8402 28.0203 74.8544 28.6406 74.8828L27.8223 72.4542ZM28.0137 71.6637L28.2448 72.4115L28.9376 74.6693L29.908 72.2404L30.1785 71.5567C29.4591 71.6067 28.7332 71.6423 28.0138 71.6637H28.0137ZM30.5812 72.1694L30.3766 71.6281L30.1653 72.212L29.1951 74.9113C30.0267 74.9612 30.8649 75.0397 31.7031 75.1678L30.5812 72.1694ZM22.3244 71.5425C22.4301 71.7634 22.529 71.9913 22.6282 72.212C22.7403 72.4685 22.8526 72.7178 22.9648 72.9741C23.1626 73.4229 23.3607 73.8644 23.5521 74.3132C23.7237 73.8218 23.9019 73.3374 24.0735 72.8531C24.179 72.5754 24.2847 72.2905 24.3903 72.0127C24.4299 71.8917 24.4762 71.7776 24.5223 71.6566C23.7898 71.6352 23.0571 71.5995 22.3245 71.5425L22.3244 71.5425ZM25.169 72.7321L24.9976 72.2833C24.9381 72.4471 24.8787 72.6109 24.8194 72.7747C24.5619 73.4799 24.3044 74.1849 24.0339 74.8829C24.6807 74.8545 25.3276 74.8331 25.9744 74.826L25.169 72.7321ZM27.2613 71.6778C26.9444 71.6778 26.6276 71.6851 26.3043 71.692C26.027 71.6851 25.7499 71.6851 25.4661 71.6778L25.5387 71.8774L25.8094 72.6679L26.3967 74.356L27.0303 72.5398L27.3273 71.6778L27.2613 71.6778ZM27.8222 72.4542L27.6836 72.0339L27.5384 72.4827L26.7926 74.8331C27.4065 74.8402 28.0202 74.8544 28.6406 74.8828L27.8222 72.4542ZM28.0136 71.6637L28.2447 72.4116L28.9376 74.6693L29.9079 72.2405L30.1785 71.5567C29.4591 71.6067 28.7332 71.6423 28.0138 71.6637L28.0136 71.6637ZM30.5811 72.1694L30.3765 71.6281L30.1652 72.212L29.195 74.9114C30.0266 74.9613 30.8648 75.0397 31.703 75.1678L30.5811 72.1694ZM21.9747 71.8559C21.9021 72.0056 21.8229 72.1623 21.7503 72.3118L22.1265 72.269C22.0738 72.1337 22.0277 71.9913 21.9748 71.8558L21.9747 71.8559ZM22.3244 71.5425C22.4301 71.7634 22.529 71.9913 22.6281 72.212C22.7403 72.4685 22.8526 72.7178 22.9647 72.9741C23.3344 72.9315 23.7038 72.8888 24.0735 72.8531C24.179 72.5754 24.2847 72.2905 24.3903 72.0127C24.4299 71.8917 24.4762 71.7776 24.5223 71.6566C23.7898 71.6352 23.0571 71.5995 22.3245 71.5425L22.3244 71.5425ZM24.9976 72.2833C24.9381 72.4471 24.8787 72.6109 24.8194 72.7747C24.9315 72.7604 25.0503 72.7462 25.169 72.7321L24.9976 72.2833ZM26.3044 71.6921C26.0271 71.6851 25.7499 71.6851 25.4662 71.6778L25.5387 71.8774C26.113 71.8133 26.6871 71.742 27.2614 71.6778C26.9445 71.6778 26.6277 71.6851 26.3045 71.692L26.3044 71.6921ZM18.7737 61.194L20.2389 71.3359C20.7933 71.2577 21.3476 71.2007 21.8955 71.1509C21.9209 71.1311 21.9503 71.1181 21.9813 71.1131C22.0124 71.1082 22.044 71.1114 22.0737 71.1224L22.0869 71.1367C23.024 71.0654 23.9547 71.0155 24.8853 70.9941C24.9543 70.9729 25.0275 70.9729 25.0965 70.9941C25.499 70.9871 25.9017 70.9799 26.3044 70.9799C27.9676 70.9872 29.624 71.0298 31.2806 71.2007C31.6436 71.2435 32.0133 71.2862 32.3763 71.336L32.4158 71.0654L33.8349 61.194L18.7737 61.194ZM21.1035 70.7449C20.8472 70.7348 20.6045 70.6178 20.4265 70.4186C20.2484 70.2193 20.149 69.9533 20.149 69.6766C20.149 69.3998 20.2484 69.1338 20.4265 68.9346C20.6045 68.7353 20.8472 68.6183 21.1035 68.6082C21.3597 68.6184 21.6023 68.7354 21.7803 68.9346C21.9582 69.1339 22.0577 69.3998 22.0577 69.6765C22.0577 69.9532 21.9583 70.2191 21.7803 70.4184C21.6024 70.6176 21.3598 70.7347 21.1036 70.7449L21.1035 70.7449ZM24.6676 70.7449C24.4113 70.7348 24.1686 70.6178 23.9906 70.4186C23.8126 70.2193 23.7131 69.9533 23.7131 69.6766C23.7131 69.3998 23.8126 69.1338 23.9906 68.9346C24.1686 68.7353 24.4113 68.6183 24.6676 68.6082C24.924 68.6182 25.1668 68.7351 25.3449 68.9343C25.5231 69.1336 25.6226 69.3996 25.6227 69.6765C25.6227 69.9534 25.5231 70.2194 25.345 70.4187C25.1669 70.618 24.9241 70.7349 24.6677 70.7449L24.6676 70.7449ZM28.1126 70.6168C27.8563 70.6067 27.6136 70.4897 27.4356 70.2904C27.2576 70.0912 27.1581 69.8252 27.1581 69.5484C27.1581 69.2716 27.2576 69.0056 27.4356 68.8064C27.6136 68.6071 27.8563 68.4902 28.1126 68.4801C28.3688 68.4903 28.6115 68.6073 28.7894 68.8065C28.9674 69.0057 29.0668 69.2716 29.0668 69.5483C29.0668 69.825 28.9674 70.091 28.7895 70.2902C28.6116 70.4895 28.369 70.6065 28.1127 70.6167L28.1126 70.6168ZM31.4985 70.7449C31.2422 70.7348 30.9995 70.6178 30.8215 70.4186C30.6434 70.2193 30.544 69.9533 30.544 69.6766C30.544 69.3998 30.6434 69.1338 30.8215 68.9346C30.9995 68.7353 31.2422 68.6183 31.4985 68.6082C31.7547 68.6184 31.9973 68.7354 32.1753 68.9346C32.3532 69.1339 32.4527 69.3998 32.4527 69.6765C32.4527 69.9532 32.3533 70.2191 32.1754 70.4184C31.9974 70.6176 31.7548 70.7347 31.4986 70.7449L31.4985 70.7449ZM30.5812 72.1694L30.3765 71.6281L30.1653 72.212L29.1951 74.9113C30.0267 74.9612 30.8649 75.0397 31.7031 75.1678L30.5812 72.1694ZM28.0137 71.6637L28.2447 72.4115L28.9376 74.6693L29.9079 72.2404L30.1785 71.5567C29.4591 71.6067 28.7332 71.6423 28.0138 71.6637H28.0137ZM27.8223 72.4542L27.6837 72.0339L27.5385 72.4827L26.7926 74.833C27.4065 74.8402 28.0202 74.8544 28.6406 74.8828L27.8223 72.4542ZM27.2614 71.6778C26.9444 71.6778 26.6276 71.6851 26.3044 71.692C26.0271 71.6851 25.7499 71.6851 25.4662 71.6778L25.5387 71.8774L25.8094 72.6679L26.3967 74.3559L27.0303 72.5398L27.3273 71.6778L27.2614 71.6778ZM25.169 72.732L24.9976 72.2832C24.9382 72.447 24.8787 72.6108 24.8194 72.7746C24.5619 73.4799 24.3044 74.1849 24.0339 74.8828C24.6807 74.8545 25.3276 74.8331 25.9744 74.826L25.169 72.732ZM22.3244 71.5425C22.4301 71.7633 22.529 71.9913 22.6282 72.2119C22.7403 72.4684 22.8526 72.7178 22.9648 72.9741C23.1627 73.4229 23.3607 73.8644 23.5521 74.3132C23.7237 73.8218 23.9019 73.3373 24.0735 72.8531C24.1791 72.5754 24.2848 72.2904 24.3903 72.0127C24.4299 71.8917 24.4762 71.7776 24.5223 71.6566C23.7898 71.6352 23.0571 71.5995 22.3245 71.5425H22.3244ZM30.5812 72.1693L30.3766 71.6281L30.1653 72.212L29.1951 74.9113C30.0267 74.9612 30.8649 75.0396 31.7031 75.1678L30.5812 72.1693ZM28.0137 71.6637L28.2448 72.4115L28.9377 74.6692L29.908 72.2404L30.1785 71.5567C29.4591 71.6067 28.7332 71.6423 28.0138 71.6637L28.0137 71.6637ZM27.8223 72.4541L27.6837 72.0339L27.5385 72.4827L26.7926 74.833C27.4065 74.8401 28.0203 74.8544 28.6406 74.8827L27.8223 72.4541ZM27.2614 71.6777C26.9445 71.6777 26.6277 71.685 26.3044 71.692C26.0271 71.685 25.75 71.685 25.4662 71.6777L25.5387 71.8774L25.8094 72.6678L26.3968 74.3559L27.0304 72.5397L27.3274 71.6778L27.2614 71.6777ZM25.1691 72.732L24.9977 72.2832C24.9382 72.447 24.8788 72.6108 24.8195 72.7746C24.562 73.4799 24.3045 74.1848 24.0339 74.8828C24.6807 74.8545 25.3277 74.8331 25.9745 74.8259L25.1691 72.732ZM22.3245 71.5425C22.4302 71.7633 22.5291 71.9913 22.6282 72.2119C22.7404 72.4684 22.8527 72.7178 22.9648 72.9741C23.1627 73.4229 23.3607 73.8643 23.5522 74.3131C23.7238 73.8217 23.902 73.3373 24.0736 72.8531C24.1791 72.5754 24.2848 72.2904 24.3904 72.0127C24.43 71.8917 24.4763 71.7776 24.5224 71.6566C23.7898 71.6352 23.0571 71.5995 22.3245 71.5425L22.3245 71.5425ZM27.2615 71.6777C26.6872 71.7419 26.1131 71.8132 25.5388 71.8774L25.8095 72.6678C26.212 72.6251 26.6213 72.5823 27.0304 72.5397L27.3274 71.6777H27.2615ZM27.6838 72.0339L27.5386 72.4827C27.6309 72.4755 27.73 72.4684 27.8223 72.4542L27.6838 72.0339ZM28.0138 71.6637L28.2448 72.4115L29.9081 72.2404L30.1786 71.5567C29.4591 71.6067 28.7332 71.6423 28.0138 71.6637L28.0138 71.6637ZM30.3766 71.6281L30.1654 72.212C30.304 72.1979 30.4426 72.1837 30.5813 72.1694L30.3766 71.6281ZM30.5482 71.5282L30.7595 72.1551L31.7691 75.1678V75.175C31.787 75.1738 31.8049 75.1762 31.822 75.1821L32.284 71.9984L32.3765 71.3359C31.7627 71.4215 31.1554 71.4785 30.5482 71.5282L30.5482 71.5282ZM31.7627 75.1892C31.7627 75.1963 31.7627 75.2106 31.7495 75.2106C31.7424 75.2138 31.7345 75.2141 31.7272 75.2115C31.7199 75.2089 31.7138 75.2035 31.7099 75.1963C29.9167 75.4343 28.1112 75.5485 26.3045 75.5382C25.4531 75.5311 24.6016 75.5097 23.7502 75.4669C23.708 75.5006 23.6583 75.5216 23.6062 75.5279C23.554 75.5341 23.5012 75.5254 23.4532 75.5025C23.4253 75.486 23.3988 75.4669 23.3739 75.4455C22.5159 75.3886 21.6514 75.3102 20.7934 75.182L21.2355 78.2446H31.3798L31.822 75.182C31.802 75.1809 31.7819 75.1833 31.7627 75.1892L31.7627 75.1892ZM23.3541 77.9739C23.0972 77.9648 22.8537 77.8482 22.675 77.6489C22.4962 77.4495 22.3963 77.183 22.3963 76.9056C22.3963 76.6282 22.4962 76.3617 22.675 76.1624C22.8537 75.963 23.0972 75.8464 23.3541 75.8373C23.611 75.8464 23.8546 75.963 24.0333 76.1624C24.212 76.3617 24.3119 76.6282 24.3119 76.9056C24.3119 77.183 24.212 77.4495 24.0333 77.6489C23.8546 77.8482 23.611 77.9648 23.3541 77.9739ZM26.6805 77.9739C26.4236 77.9648 26.1801 77.8482 26.0014 77.6489C25.8226 77.4495 25.7227 77.183 25.7227 76.9056C25.7227 76.6282 25.8226 76.3617 26.0014 76.1624C26.1801 75.963 26.4236 75.8464 26.6805 75.8373C26.9374 75.8464 27.181 75.963 27.3597 76.1624C27.5384 76.3617 27.6383 76.6282 27.6383 76.9056C27.6383 77.183 27.5384 77.4495 27.3597 77.6489C27.181 77.8482 26.9374 77.9648 26.6805 77.9739ZM30.0069 77.8458C29.75 77.8366 29.5065 77.7201 29.3278 77.5207C29.149 77.3214 29.0491 77.0548 29.0491 76.7775C29.0491 76.5001 29.149 76.2336 29.3278 76.0342C29.5065 75.8349 29.75 75.7183 30.0069 75.7091C30.2638 75.7183 30.5074 75.8348 30.6861 76.0342C30.8648 76.2335 30.9647 76.5 30.9647 76.7774C30.9648 77.0548 30.8649 77.3213 30.6861 77.5207C30.5074 77.72 30.2639 77.8366 30.007 77.8458H30.0069ZM30.5812 72.1693L30.3766 71.628L30.1653 72.2119L29.1951 74.9113C30.0267 74.9612 30.8649 75.0396 31.7031 75.1678L30.5812 72.1693ZM28.0137 71.6636L28.2448 72.4115L28.9377 74.6692L29.908 72.2404L30.1785 71.5566C29.4591 71.6067 28.7332 71.6423 28.0138 71.6637L28.0137 71.6636ZM27.8223 72.4541L27.6837 72.0338L27.5385 72.4826L26.7926 74.833C27.4065 74.8401 28.0203 74.8544 28.6406 74.8827L27.8223 72.4541ZM27.2614 71.6777C26.9445 71.6777 26.6277 71.685 26.3044 71.692C26.0271 71.685 25.75 71.685 25.4662 71.6777L25.5387 71.8773L25.8094 72.6678L26.3968 74.3559L27.0304 72.5397L27.3274 71.6778L27.2614 71.6777ZM25.1691 72.732L24.9977 72.2832C24.9382 72.447 24.8788 72.6108 24.8195 72.7746C24.562 73.4799 24.3045 74.1848 24.0339 74.8828C24.6807 74.8544 25.3277 74.8331 25.9745 74.8259L25.1691 72.732ZM22.3245 71.5424C22.4302 71.7633 22.5291 71.9912 22.6282 72.2119C22.7404 72.4684 22.8527 72.7177 22.9648 72.974C23.1627 73.4228 23.3607 73.8643 23.5522 74.3131C23.7238 73.8217 23.902 73.3373 24.0736 72.853C24.1791 72.5754 24.2848 72.2904 24.3904 72.0127C24.43 71.8916 24.4762 71.7776 24.5224 71.6565C23.7898 71.6352 23.0571 71.5995 22.3245 71.5425L22.3245 71.5424ZM22.4104 73.0311C22.3181 72.7819 22.219 72.5254 22.1266 72.2689C22.0738 72.1337 22.0277 71.9912 21.9748 71.8558C21.9022 72.0055 21.823 72.1622 21.7504 72.3117C21.6184 72.5896 21.4798 72.8673 21.3413 73.145C21.1366 73.5652 20.9254 73.9855 20.7076 74.4056C20.705 74.4083 20.7019 74.4104 20.6984 74.4116C20.6949 74.4128 20.6913 74.4132 20.6877 74.4127L20.7934 75.182C21.5721 75.0608 22.3577 74.9897 23.1364 74.9326C22.8988 74.2989 22.6545 73.6649 22.4104 73.0311L22.4104 73.0311ZM22.9648 72.974C23.1627 73.4228 23.3607 73.8643 23.5522 74.3131C23.7238 73.8217 23.902 73.3373 24.0736 72.853C23.7039 72.8887 23.3345 72.9315 22.9648 72.9741L22.9648 72.974ZM25.1691 72.732C25.0504 72.7461 24.9316 72.7603 24.8195 72.7746C24.562 73.4799 24.3045 74.1848 24.034 74.8828C24.6808 74.8544 25.3277 74.8331 25.9745 74.8259L25.1691 72.732ZM25.8095 72.6678L26.3968 74.3559L27.0304 72.5397C26.6213 72.5823 26.212 72.6251 25.8095 72.6679L25.8095 72.6678ZM27.8223 72.4542C27.73 72.4684 27.6309 72.4755 27.5386 72.4826L26.7927 74.833C27.4066 74.8401 28.0204 74.8544 28.6407 74.8827L27.8223 72.4542ZM28.2448 72.4116L28.9377 74.6693L29.9081 72.2404L28.2448 72.4116ZM30.5812 72.1693C30.4427 72.1836 30.304 72.1978 30.1654 72.2119L29.1952 74.9113C30.0268 74.9612 30.865 75.0396 31.7031 75.1678L30.5812 72.1693ZM20.2389 71.3359L20.4039 72.4684L20.5095 73.2377L20.668 74.3132C20.8066 73.9286 20.9452 73.551 21.0837 73.1735C21.1827 72.8958 21.2884 72.6251 21.3939 72.3545C21.4995 72.0697 21.6052 71.7847 21.7173 71.4997C21.2223 71.4571 20.7339 71.4001 20.2389 71.3359Z" fill="black"/>
<path d="M27.2203 69.7163C26.6694 69.1817 26.2615 68.4975 26.039 67.7349C25.9353 67.3546 25.8007 66.978 25.7216 66.5893L25.4982 65.4174C25.316 63.8392 25.2604 62.2471 25.332 60.6587C25.3579 59.0674 25.5783 57.4997 25.7491 55.9255C26.0164 54.3714 26.2224 52.7994 26.572 51.2653C26.9001 49.7248 27.2282 48.1847 27.6428 46.6709C28.0422 45.1522 28.4259 43.6295 28.9181 42.1431C29.3941 40.6519 29.8213 39.1443 30.3506 37.6748C30.8862 36.2074 31.3946 34.7313 31.9526 33.2759C31.1763 36.3164 30.2773 39.3057 29.5214 42.3398L28.9334 44.6071L28.3922 46.8863C28.2174 47.6471 28.0063 48.3986 27.8492 49.1633L27.3716 51.4555C27.0087 52.9745 26.8044 54.5233 26.5129 56.0566C26.2989 57.6005 26.0738 59.1457 25.9581 60.7C25.8158 62.2508 25.7946 63.8116 25.8947 65.3662L26.0229 66.5232C26.0704 66.9087 26.1721 67.2807 26.2445 67.6631C26.4092 68.4233 26.7443 69.1284 27.2203 69.7163Z" fill="black"/>
<path d="M20.6811 74.3914L20.6679 74.3131L20.6481 74.3771C20.6415 74.3913 20.6481 74.4056 20.6613 74.4199C20.6744 74.427 20.6811 74.4199 20.6876 74.4128L20.6811 74.3914Z" fill="#FCFCFC"/>
<path d="M44.0369 75.7636C46.2013 75.1207 48.3971 74.6075 50.6141 74.2266C52.8264 73.8138 55.0583 73.5351 57.2994 73.3918C55.1353 74.0363 52.9394 74.5495 50.7221 74.9289C48.5097 75.3402 46.2779 75.6189 44.0369 75.7636ZM70.2335 75.4515C72.3979 74.8084 74.5937 74.2952 76.8108 73.9145C79.0229 73.5016 81.2548 73.2229 83.4959 73.0797C81.3318 73.7243 79.1359 74.2374 76.9186 74.6167C74.7062 75.0279 72.4744 75.3066 70.2335 75.4515ZM97.0956 70.4278C99.2601 69.7848 101.456 69.2716 103.673 68.8908C105.885 68.4779 108.117 68.1992 110.358 68.056C108.194 68.7006 105.998 69.2137 103.781 69.593C101.568 70.0042 99.3366 70.2829 97.0956 70.4278ZM209.272 115.434C207.893 114.425 206.679 113.176 205.679 111.74C204.653 110.331 203.728 108.839 202.912 107.278C202.092 105.723 201.35 104.122 200.667 102.494C199.983 100.862 199.345 99.2239 198.775 97.5224L199.403 97.945C196.094 98.4072 192.732 98.0933 189.547 97.0246C187.964 96.5242 186.417 95.9019 184.918 95.1623C183.417 94.4431 181.957 93.6313 180.543 92.7309C177.725 90.9425 175.045 88.9109 172.531 86.6559C170.017 84.4138 167.639 81.9994 165.412 79.4277L165.401 79.4152C165.323 79.323 165.279 79.202 165.281 79.0767C165.282 78.9514 165.328 78.8313 165.408 78.741C166.369 77.6682 167.364 76.6715 168.396 75.7014C169.422 74.7287 170.505 73.8267 171.611 72.9597C172.716 72.0822 173.893 71.3147 175.128 70.6667C176.362 69.9571 177.727 69.5509 179.124 69.4773C179.151 69.4774 179.178 69.4821 179.204 69.4914C180.515 69.9811 181.837 70.4351 183.153 70.9086L187.105 72.3151C189.736 73.2658 192.384 74.1601 195.027 75.0712L194.518 75.3692L197.985 59.7082C199.154 54.4915 200.345 49.2809 201.557 44.0763L201.541 44.1586C201.626 43.7115 201.756 43.2759 201.929 42.8597C202.08 42.471 202.259 42.1085 202.437 41.7447C202.808 41.0431 203.224 40.37 203.681 39.7303C204.58 38.4743 205.581 37.3081 206.673 36.2458C208.828 34.1527 211.172 32.2974 213.67 30.7078C214.919 29.898 216.213 29.1726 217.545 28.5358C218.883 27.9118 220.255 27.3767 221.653 26.9334C224.451 26.0391 227.352 25.5735 230.27 25.5505C233.184 25.5177 236.087 25.9373 238.89 26.7964C240.294 27.2291 241.661 27.7934 242.974 28.4827C243.298 28.6658 243.614 28.8687 243.934 29.0609L244.412 29.3532L244.867 29.6891C245.168 29.916 245.476 30.1315 245.77 30.368L246.615 31.1318C248.827 33.2349 250.397 36.0106 251.121 39.0943C251.75 42.1277 251.83 45.2636 251.357 48.3297C251.355 48.3412 251.352 48.3522 251.346 48.3622C251.34 48.3721 251.333 48.3808 251.324 48.3877C251.316 48.3947 251.306 48.3997 251.296 48.4025C251.285 48.4053 251.274 48.4058 251.264 48.4041C251.243 48.4005 251.225 48.3888 251.212 48.3712C251.199 48.3536 251.193 48.3315 251.194 48.3092C251.469 45.2806 251.224 42.2233 250.471 39.2907C249.666 36.4258 248.09 33.8843 245.942 31.9901L245.127 31.3129C244.844 31.1044 244.547 30.9159 244.258 30.7164L243.823 30.421L243.363 30.1673C243.056 30.0006 242.754 29.8232 242.444 29.6648C241.184 29.0517 239.878 28.5549 238.54 28.1795C235.851 27.4334 233.077 27.1086 230.302 27.2151C228.918 27.2609 227.539 27.4122 226.175 27.6679C224.809 27.9083 223.459 28.2478 222.135 28.6841C220.812 29.1219 219.515 29.6463 218.251 30.2544C216.991 30.8735 215.763 31.5651 214.572 32.3263C212.176 33.8595 209.914 35.6265 207.817 37.6049C206.784 38.58 205.835 39.6535 204.981 40.8122C204.562 41.3797 204.181 41.9776 203.839 42.6016C203.682 42.9137 203.522 43.2251 203.395 43.5425C203.274 43.8245 203.177 44.1176 203.104 44.4182L203.088 44.5008C201.826 49.6914 200.542 54.8764 199.239 60.0556L195.284 75.5812L195.28 75.5946C195.267 75.6478 195.244 75.6976 195.212 75.7412C195.181 75.7848 195.142 75.8212 195.097 75.8485C195.053 75.8758 195.004 75.8933 194.953 75.9001C194.902 75.907 194.851 75.903 194.802 75.8883L194.775 75.8794C192.159 74.8812 189.548 73.866 186.92 72.9072L182.984 71.4497C181.671 70.9686 180.363 70.4678 179.045 70.0028L179.124 70.0167C177.806 70.1036 176.522 70.5021 175.362 71.1842C174.171 71.8429 173.04 72.6204 171.983 73.5064C170.913 74.3828 169.888 75.323 168.915 76.3225C167.94 77.3161 166.986 78.354 166.103 79.4228L166.099 78.7362C168.381 81.1689 170.804 83.4425 173.353 85.5434C175.877 87.6655 178.526 89.6088 181.282 91.361C182.661 92.2252 184.066 93.0376 185.512 93.7486C186.947 94.4757 188.428 95.0902 189.945 95.5876C192.94 96.6533 196.107 97.0354 199.246 96.7097L199.268 96.7071C199.399 96.6921 199.531 96.7262 199.641 96.8037C199.751 96.8811 199.833 96.9972 199.873 97.1322C200.363 98.7899 200.942 100.451 201.557 102.078C202.175 103.709 202.85 105.314 203.602 106.875C204.322 108.454 205.149 109.972 206.078 111.417C206.988 112.877 208.095 114.182 209.364 115.287C209.381 115.301 209.393 115.322 209.397 115.345C209.4 115.368 209.395 115.392 209.382 115.411C209.369 115.429 209.351 115.441 209.331 115.445C209.31 115.449 209.289 115.445 209.272 115.434Z" fill="black"/>
</g>
<defs>
<clipPath id="clip0_9_148">
<rect width="264" height="198" fill="white"/>
</clipPath>
</defs>
</svg>
