<svg width="409" height="357" viewBox="0 0 409 357" fill="none" xmlns="http://www.w3.org/2000/svg">
<g clip-path="url(#clip0_5_23)">
<path d="M224.376 85.9249L212.426 92.7047L212.406 92.6744L210.414 89.2695C210.123 87.1456 209.649 85.0499 208.998 83.0049C209.952 78.6401 209.716 75.9524 209.285 74.3864C209.117 73.7249 208.755 73.1268 208.244 72.6667C207.732 72.2067 207.095 71.9051 206.41 71.7997C205.888 71.7354 205.358 71.8214 204.884 72.0473C204.411 72.2732 204.014 72.6294 203.741 73.0728C202.797 70.4154 204.193 66.8386 207.92 66.8386C212.17 66.8386 213.361 71.446 211.554 74.1034C213.017 73.7181 214.568 73.8182 215.967 74.388C217.366 74.9579 218.536 75.9658 219.294 77.2557L224.284 85.7633L224.376 85.9249ZM196.514 115.327C198.967 123.269 217.015 165.686 218.802 169.869L218.134 183.459C182.336 186.025 133.746 154.763 131.343 153.207C134.208 152.831 137.028 152.178 139.762 151.257C142.529 150.331 145.217 149.189 147.8 147.842C149.114 147.206 150.336 146.397 151.589 145.66C152.78 144.821 154.012 144.033 155.141 143.103C157.39 141.387 159.47 139.466 161.352 137.364C162.861 137.597 164.349 137.809 165.849 137.991L170.612 138.647C173.784 139.092 176.936 139.658 180.129 140.062C183.321 140.439 186.534 140.615 189.748 140.588C192.967 140.563 196.179 140.299 199.358 139.799C199.374 139.795 199.388 139.785 199.399 139.773C199.41 139.76 199.417 139.745 199.419 139.729C199.418 139.71 199.41 139.693 199.397 139.68C199.383 139.667 199.366 139.659 199.347 139.658C196.134 139.648 192.951 139.607 189.769 139.476L180.221 138.961C177.039 138.809 173.836 138.658 170.674 138.223C167.512 137.779 164.36 137.172 161.27 136.425C161.183 136.405 161.092 136.415 161.013 136.455C160.739 136.319 160.497 136.129 160.299 135.898C160.102 135.667 159.953 135.4 159.863 135.111C159.587 134.378 159.404 133.615 159.319 132.838C159.138 131.258 159.1 129.665 159.206 128.079C158.975 129.664 158.893 131.268 158.96 132.868C158.994 133.685 159.124 134.496 159.35 135.283C159.478 135.7 159.676 136.092 159.935 136.445C160.076 136.628 160.242 136.792 160.428 136.93C158.5 138.757 156.453 140.458 154.299 142.022C151.995 143.68 149.584 145.188 147.082 146.539C142.073 149.307 136.758 151.501 131.241 153.076C131.223 153.081 131.208 153.092 131.197 153.106C131.186 153.121 131.18 153.139 131.179 153.157C131.181 153.165 131.184 153.172 131.19 153.177C129.804 153.652 105.103 162.493 102.773 176.113C101.068 186.055 99.7132 197.695 100.175 205.97L100.083 206.334C76.758 183.519 78.0721 165.807 78.0721 165.807C78.0721 165.807 119.076 113.135 140.173 100.727C140.173 100.727 146.599 93.1292 166.927 94.9075C171.156 95.2713 176.187 95.9785 181.505 96.8678C181.529 97.1973 181.532 97.528 181.515 97.858C181.457 100.146 181.984 102.412 183.048 104.448C184.112 106.483 185.678 108.223 187.603 109.508C189.132 110.528 196.514 115.327 196.514 115.327ZM226.194 106.305C221.964 112.185 221.163 122.087 221.163 122.087L221.112 123.188C216.774 116.805 213.253 109.92 210.63 102.687C219.705 104.698 226.194 106.305 226.194 106.305Z" fill="black"/>
<path d="M212.406 92.6743L210.743 93.6444C210.77 95.6459 210.5 97.6406 209.942 99.5653L248.882 77.8115L230.865 39.6083L184.687 63.2517L183.527 65.7777L193.146 83.1262C194.144 83.6046 195.217 83.9153 196.319 84.0456C194.245 81.0649 192.428 77.9428 190.662 74.7904C188.838 71.5354 187.187 68.1899 185.714 64.7673C187.828 67.8465 189.781 71.03 191.566 74.3054C193.3 77.4882 194.974 80.7113 196.401 84.0557C197.402 84.2035 198.424 84.0186 199.306 83.5303L199.296 83.5202L190.991 65.7777L229.068 45.1454L243.164 74.7702L224.284 85.7633L212.406 92.6743ZM17.6933 208.017C17.6933 208.017 19.4087 227.939 60.4058 199.576C60.4058 199.576 70.6979 193.161 79.1032 193.667C79.1032 193.667 82.3624 202.109 82.3624 209.199L66.0665 214.815C66.0665 214.815 67.7818 203.797 57.4897 209.03C57.4897 209.03 32.96 234.523 1.22583 222.705C1.22583 222.705 -7.17945 218.822 17.6933 208.017ZM17.6933 208.017C22.512 204.537 27.4009 201.164 32.36 197.901C37.3038 194.613 42.3121 191.426 47.3328 188.257C52.3742 185.121 57.4294 182.006 62.5487 178.99C67.6524 175.95 72.8275 173.02 78.074 170.201C73.2565 173.684 68.3681 177.057 63.4089 180.32C58.4648 183.607 53.4566 186.795 48.4345 189.961C43.3918 193.095 38.3366 196.211 33.2169 199.226C28.1127 202.265 22.9381 205.196 17.6933 208.017ZM79.1032 193.667C80.3063 191.508 81.6281 189.415 83.0628 187.398C84.464 185.369 85.96 183.413 87.4742 181.471C89.0184 179.552 90.5828 177.649 92.2398 175.821C93.8759 173.965 95.6151 172.2 97.4495 170.533C96.2459 172.696 94.9228 174.792 93.4861 176.812C92.0854 178.839 90.5921 180.792 89.0785 182.73C87.535 184.643 85.9734 186.543 84.3169 188.37C82.6779 190.227 80.9375 191.996 79.1032 193.667ZM109.808 170.201C109.533 170.331 109.303 170.539 109.147 170.798C108.992 171.057 108.917 171.355 108.933 171.655C109.001 172.248 109.245 172.807 109.635 173.264C110.387 174.217 111.273 175.06 112.268 175.767C114.257 177.208 116.354 178.5 118.54 179.633C122.872 181.985 127.395 184.005 131.924 185.988C141.004 189.92 150.296 193.38 159.525 197.071L173.329 202.649C177.919 204.527 182.521 206.373 187.144 208.13C189.456 209.009 191.786 209.829 194.134 210.569C196.46 211.339 198.85 211.907 201.277 212.264C202.477 212.428 203.692 212.466 204.9 212.377C206.101 212.27 207.271 211.94 208.347 211.404C210.479 210.176 212.254 208.428 213.502 206.329C212.911 207.414 212.23 208.449 211.464 209.423C210.662 210.393 209.696 211.222 208.61 211.873C207.498 212.514 206.273 212.941 204.999 213.134C203.732 213.306 202.451 213.345 201.175 213.25C198.664 213 196.179 212.528 193.753 211.84C191.33 211.193 188.955 210.416 186.596 209.612C177.169 206.356 167.985 202.587 158.752 198.942L144.936 193.385C140.342 191.48 135.758 189.545 131.259 187.416C126.73 185.337 122.316 183.023 118.035 180.484C115.892 179.201 113.849 177.762 111.924 176.178C110.945 175.389 110.087 174.464 109.378 173.432C109.005 172.911 108.797 172.293 108.779 171.656C108.786 171.341 108.888 171.035 109.071 170.776C109.254 170.517 109.51 170.317 109.808 170.201ZM218.133 222.79C218.665 226.026 218.994 229.269 219.252 232.514C219.523 235.758 219.674 239.007 219.802 242.256C219.891 245.506 219.955 248.758 219.899 252.013C219.856 255.268 219.74 258.525 219.42 261.788C218.885 258.552 218.555 255.309 218.297 252.064C218.027 248.819 217.876 245.571 217.751 242.322C217.664 239.071 217.601 235.82 217.657 232.565C217.701 229.31 217.816 226.053 218.133 222.79ZM246.951 135.423C248.022 133.022 249.449 130.792 251.186 128.803C252.892 126.779 254.782 124.913 256.834 123.227C261.002 119.908 265.63 117.192 270.578 115.162C280.514 111.207 291.078 108.999 301.79 108.637C307.022 108.439 312.228 107.796 317.347 106.714C322.441 105.627 327.347 103.816 331.911 101.34C336.476 98.8514 340.452 95.4372 343.576 91.3234C345.151 89.2622 346.462 87.0191 347.483 84.6442C348.535 82.2626 349.253 79.7509 349.616 77.1785C349.473 79.7985 348.924 82.3818 347.99 84.8391C347.09 87.3252 345.885 89.6938 344.401 91.8919C341.368 96.3 337.379 99.9912 332.723 102.7C330.421 104.081 327.996 105.251 325.476 106.196C322.97 107.153 320.402 107.949 317.79 108.577C312.564 109.732 307.244 110.427 301.894 110.654C291.398 110.997 281.028 113.01 271.186 116.614C266.296 118.465 261.678 120.949 257.455 124C255.345 125.538 253.384 127.263 251.594 129.153C249.772 131.032 248.211 133.141 246.951 135.423Z" fill="black"/>
<path d="M232.875 97.8338C233.353 95.6414 234.148 93.5278 235.236 91.5577C236.3 89.5711 237.545 87.6832 238.954 85.9167C241.803 82.4059 245.146 79.3134 248.883 76.7326C249.827 76.1074 250.759 75.4662 251.725 74.8807L254.701 73.2585L256.188 72.4541L257.727 71.7511C258.749 71.2779 259.781 70.8271 260.791 70.3364C262.855 69.4468 264.949 68.635 267.002 67.7256C269.118 66.9734 271.222 66.184 273.314 65.3574C273.373 65.3339 273.438 65.3271 273.502 65.3377L273.555 65.3467C276.509 65.8292 279.502 66.0413 282.497 65.9803C285.456 65.9773 288.404 65.6291 291.28 64.9428C294.081 64.2942 296.687 63.0079 298.891 61.1872C299.934 60.2679 300.834 59.2023 301.561 58.0247C302.274 56.8214 302.822 55.5311 303.193 54.187L303.22 54.0993C303.278 53.9038 303.399 53.7318 303.564 53.6085C303.729 53.4852 303.929 53.417 304.136 53.4138C306.209 53.4205 308.273 53.6567 310.292 54.1178C312.269 54.5577 314.211 55.1426 316.099 55.8679C317.966 56.6114 319.783 57.4675 321.543 58.4313C323.279 59.4096 324.951 60.494 326.55 61.6781C326.561 61.686 326.57 61.696 326.577 61.7075C326.584 61.7189 326.588 61.7316 326.59 61.7447C326.592 61.7579 326.591 61.7713 326.588 61.7842C326.585 61.7971 326.579 61.8091 326.571 61.8198C326.555 61.8389 326.533 61.8521 326.509 61.8571C326.485 61.8621 326.46 61.8585 326.438 61.8471L323.807 60.4834C322.907 60.0766 322.04 59.6136 321.122 59.2571C319.332 58.465 317.495 57.782 315.62 57.212C313.758 56.655 311.862 56.2134 309.943 55.8898C308.071 55.557 306.169 55.4112 304.267 55.4547L305.209 54.6817C304.824 56.2306 304.23 57.7221 303.445 59.117C302.608 60.5001 301.556 61.7457 300.328 62.8083C297.838 64.8099 294.891 66.1839 291.74 66.8113C288.696 67.4571 285.578 67.6962 282.469 67.5221C279.397 67.3588 276.345 66.9227 273.353 66.2191L273.593 66.2085C271.466 66.8733 269.346 67.5728 267.235 68.307C266.204 68.7302 265.181 69.1756 264.161 69.6238C263.143 70.0776 262.107 70.4951 261.127 71.0235C260.143 71.5443 259.181 72.1052 258.21 72.6438L256.759 73.4581L255.367 74.3676L252.591 76.1826L249.933 78.1466C246.377 80.7238 243.099 83.6549 240.152 86.8932C238.695 88.5272 237.358 90.2607 236.149 92.0806C234.904 93.892 233.873 95.8371 233.075 97.8781L233.072 97.8878C233.063 97.9115 233.045 97.931 233.022 97.9425C232.999 97.954 232.973 97.9566 232.948 97.9498C232.924 97.943 232.902 97.9274 232.889 97.9059C232.875 97.8844 232.87 97.8587 232.875 97.8339L232.875 97.8338Z" fill="black"/>
<path d="M276.071 66.32C274.812 65.2712 273.399 64.1306 271.827 64.5604C271.029 64.7473 270.248 64.9969 269.491 65.3069L267.116 66.1651C265.499 66.7763 263.818 67.2081 262.103 67.4523C261.212 67.562 260.312 67.575 259.418 67.4907C258.509 67.3785 257.62 67.1433 256.777 66.7917C255.118 66.0703 253.647 64.9864 252.478 63.6222C251.333 62.3192 250.34 60.8948 249.517 59.3754C248.686 57.9022 247.956 56.4541 247.1 55.0518C246.689 54.3486 246.265 53.6513 245.809 53.0069C245.596 52.6938 245.362 52.3948 245.109 52.112C245.014 52.0001 244.909 51.8966 244.795 51.8029C244.746 51.7592 244.741 51.7714 244.805 51.7763C244.95 51.7974 245.098 51.7662 245.221 51.6884C245.344 51.6107 245.434 51.4917 245.475 51.3535L244.884 51.8738C243.917 52.0242 242.928 51.8098 242.115 51.2735C241.689 51.0007 241.342 50.6235 241.109 50.179C240.871 49.7216 240.785 49.202 240.864 48.694C241.201 46.7616 242.821 45.7973 243.646 44.779C244.568 43.6617 245.21 42.3461 245.519 40.939C245.85 39.5133 245.921 38.0411 245.728 36.591L245.843 36.7843C244.828 35.8844 244.067 34.7398 243.638 33.463C243.202 32.2199 242.957 30.9195 242.913 29.6052C242.846 28.305 242.885 27.0016 243.032 25.7078C243.151 24.4086 243.358 23.1186 243.65 21.8463C243.668 21.7692 243.706 21.6979 243.76 21.639C243.813 21.5801 243.881 21.5356 243.957 21.5095C244.033 21.4835 244.115 21.4769 244.194 21.4902C244.273 21.5035 244.348 21.5364 244.411 21.5858L244.438 21.6075C247.521 24.0552 250.724 26.3754 253.947 28.6229C255.561 29.7424 257.198 30.8285 258.872 31.8162C259.709 32.3092 260.551 32.7843 261.403 33.1871C262.125 33.5821 262.92 33.8323 263.741 33.9232L262.823 34.8522C262.872 33.8596 263.046 32.877 263.342 31.9269C263.642 30.8767 264.228 29.9269 265.036 29.1798C265.263 28.9725 265.519 28.7993 265.798 28.666L266.222 28.4592L266.676 28.3405C266.828 28.3051 266.983 28.2658 267.135 28.2407L267.585 28.2293C267.878 28.21 268.171 28.2321 268.457 28.295C269.577 28.4674 270.615 28.9763 271.43 29.7519C272.196 30.466 272.813 31.32 273.247 32.2663C273.673 33.1543 273.997 34.0862 274.214 35.0448C274.428 35.9907 274.551 36.9545 274.581 37.9232C274.595 38.4226 274.577 38.9224 274.529 39.4197C274.493 39.696 274.441 39.9702 274.374 40.2409L274.225 40.6996C274.113 40.9219 273.976 41.1307 273.816 41.322L273.568 39.6686C275.701 40.796 277.873 41.9038 280.052 42.9488C281.146 43.4607 282.245 43.9665 283.355 44.4073C284.383 44.859 285.465 45.179 286.576 45.3593L286.673 45.3682C286.794 45.3797 286.911 45.42 287.014 45.4856C289.744 47.2457 292.495 49.0225 295.325 50.6402C296.744 51.4427 298.165 52.2446 299.625 52.9625C300.352 53.3225 301.097 53.6459 301.857 53.9315C302.577 54.2637 303.373 54.4045 304.165 54.3399L304.186 54.3356C304.211 54.3301 304.238 54.3345 304.26 54.348C304.283 54.3614 304.299 54.3828 304.306 54.4076C304.312 54.4325 304.309 54.459 304.296 54.4816C304.284 54.5041 304.263 54.521 304.238 54.5288C303.398 54.7052 302.525 54.6473 301.717 54.3617C300.916 54.1364 300.127 53.8711 299.353 53.5668C297.808 52.9665 296.301 52.2849 294.824 51.5504C291.873 50.0738 288.969 48.5311 286.139 46.829L286.576 46.9552C285.253 46.831 283.956 46.5187 282.724 46.0282C281.542 45.6097 280.4 45.1355 279.26 44.6543C276.984 43.6831 274.766 42.6364 272.568 41.5034L272.32 39.8498C272.282 39.844 272.257 39.8866 272.267 39.8952C272.28 39.8318 272.297 39.769 272.316 39.7073C272.356 39.5804 272.369 39.3651 272.4 39.1995C272.431 38.799 272.436 38.397 272.418 37.9958C272.37 37.1635 272.254 36.3364 272.07 35.5227C271.784 33.9516 271.045 32.4945 269.941 31.3251C269.439 30.832 268.797 30.5005 268.099 30.3744C267.806 30.2993 267.498 30.293 267.201 30.356C266.905 30.419 266.627 30.5495 266.391 30.7372C265.408 31.5292 264.913 33.3723 264.787 34.9239L264.78 35.0025C264.761 35.2298 264.657 35.4421 264.489 35.5989C264.32 35.7558 264.099 35.8463 263.868 35.8531C263.238 35.8516 262.614 35.7339 262.028 35.5063C261.527 35.3195 261.038 35.1053 260.562 34.8648C259.65 34.4035 258.763 33.8955 257.905 33.3428C256.209 32.2537 254.59 31.0888 252.998 29.8942C249.819 27.4982 246.804 24.9324 243.804 22.3388L244.592 22.1002C243.877 24.5268 243.547 27.0477 243.614 29.5734C243.632 30.8256 243.84 32.0681 244.233 33.2594C244.615 34.4305 245.315 35.4765 246.258 36.284L246.272 36.2951C246.327 36.3415 246.364 36.4065 246.374 36.4777C246.607 38.011 246.582 39.5717 246.3 41.0971C246.038 42.6555 245.419 44.1346 244.489 45.4218C244.25 45.745 243.991 46.0532 243.713 46.3445C243.46 46.6341 243.222 46.8757 243 47.1518C242.583 47.6303 242.308 48.2122 242.204 48.8341C242.184 49.0823 242.241 49.3305 242.368 49.5461C242.494 49.7617 242.684 49.9345 242.912 50.0418C243.402 50.3186 243.975 50.4161 244.531 50.317L243.941 50.837C244.03 50.6054 244.2 50.4132 244.422 50.2957C244.643 50.1783 244.9 50.1435 245.145 50.1978C245.35 50.2447 245.544 50.3289 245.717 50.4461C245.943 50.595 246.152 50.7694 246.338 50.9656C246.654 51.2932 246.947 51.6412 247.215 52.0075C247.745 52.7067 248.209 53.4189 248.661 54.1367C249.546 55.5718 250.342 57.0796 251.131 58.5103C252.662 61.3206 254.631 64.0354 257.428 65.3319C258.854 65.9612 260.419 66.2212 261.976 66.0872C263.607 65.9455 265.218 65.6256 266.777 65.1335C268.394 64.5968 270.046 64.1719 271.723 63.8619C272.635 63.7399 273.561 63.9562 274.32 64.4687C275.015 64.9646 275.651 65.5371 276.214 66.1751C276.233 66.1946 276.243 66.2207 276.242 66.2475C276.241 66.2743 276.23 66.2997 276.21 66.3181C276.191 66.3349 276.167 66.3444 276.141 66.3447C276.116 66.3451 276.091 66.3363 276.071 66.32Z" fill="black"/>
<path d="M269.851 43.3715C270.34 42.8548 270.858 42.3668 271.405 41.9101L272.175 41.2663C272.46 41.0234 272.758 40.7963 273.068 40.5859C273.074 40.985 272.989 41.3804 272.817 41.7421C272.645 42.1037 272.392 42.4221 272.077 42.6732C271.775 42.9302 271.426 43.1293 271.05 43.2602C270.668 43.4042 270.254 43.4428 269.851 43.3715ZM292.949 49.9322C292.949 49.9322 298.927 53.8808 304.845 43.3715C310.763 32.8622 296.354 32.2291 296.354 32.2291C296.354 32.2291 302.272 4.24644 279.735 0.82774C257.198 -2.59096 244.121 21.973 244.121 21.973C244.121 21.973 259.555 34.9739 263.805 34.8881C263.805 34.8881 264.051 26.7544 270.126 30.0714C270.126 30.0714 274.372 32.6526 273.068 40.5859C273.068 40.5859 285.436 46.3906 286.576 46.1571C287.716 45.9236 292.949 49.9322 292.949 49.9322ZM248.878 56.3071C249.774 56.1603 250.66 55.9618 251.532 55.7128C251.929 55.5886 252.311 55.4207 252.67 55.2125C253.067 54.9723 253.448 54.7087 253.813 54.4231C253.765 54.9413 253.546 55.4298 253.189 55.8133C252.83 56.2102 252.37 56.5061 251.856 56.6707C251.356 56.8278 250.829 56.8786 250.307 56.82C249.794 56.7737 249.301 56.597 248.878 56.3071ZM246.051 36.5341C246.452 35.9387 246.977 35.4345 247.593 35.0554C248.206 34.6631 248.882 34.3744 249.593 34.2011C250.308 34.0222 251.051 33.9808 251.782 34.079C252.507 34.163 253.202 34.411 253.813 34.8036C253.083 34.8283 252.42 34.7922 251.76 34.8672C251.111 34.9159 250.467 35.0213 249.837 35.1819C248.535 35.5174 247.268 35.97 246.051 36.5341ZM249.438 47.3811C249.77 47.4988 250.046 47.7312 250.216 48.0348C250.404 48.3512 250.48 48.7203 250.432 49.084C250.381 49.4648 250.179 49.8103 249.871 50.0455C249.733 50.1558 249.574 50.2383 249.404 50.288C249.234 50.3378 249.055 50.354 248.878 50.3356C249.025 50.0011 249.171 49.7677 249.256 49.5406C249.34 49.3503 249.394 49.1483 249.417 48.9418C249.462 48.4228 249.469 47.9012 249.438 47.3811ZM271.459 61.7311C272.669 59.7355 273.723 57.653 274.614 55.5012C275.059 54.4367 275.449 53.3506 275.783 52.2472C276.143 51.1435 276.392 50.0126 276.713 48.8583C276.828 50.0491 276.777 51.2499 276.563 52.4273C276.361 53.6112 276.027 54.7693 275.565 55.8803C275.111 56.9929 274.538 58.055 273.855 59.0485C273.193 60.052 272.386 60.9556 271.459 61.7311ZM250.382 42.042C250.799 42.0278 251.194 41.8549 251.484 41.5596C251.773 41.2643 251.935 40.8698 251.935 40.4593C251.935 40.0487 251.773 39.6542 251.484 39.359C251.194 39.0637 250.799 38.8907 250.382 38.8765C249.965 38.8907 249.57 39.0637 249.28 39.359C248.99 39.6542 248.828 40.0487 248.828 40.4593C248.828 40.8698 248.99 41.2643 249.28 41.5596C249.57 41.8549 249.965 42.0278 250.382 42.042Z" fill="black"/>
<path d="M269.851 40.6637C270.129 40.6542 270.393 40.5389 270.586 40.342C270.779 40.1452 270.887 39.8822 270.887 39.6085C270.887 39.3348 270.779 39.0718 270.586 38.875C270.393 38.6781 270.129 38.5628 269.851 38.5533C269.573 38.5628 269.31 38.6781 269.117 38.875C268.924 39.0718 268.816 39.3348 268.816 39.6085C268.816 39.8822 268.924 40.1452 269.117 40.342C269.31 40.5389 269.573 40.6542 269.851 40.6637Z" fill="black"/>
<path d="M131.345 153.209C131.314 153.209 131.293 153.22 131.262 153.22C131.255 153.222 131.247 153.222 131.239 153.221C131.231 153.22 131.224 153.218 131.217 153.214C131.21 153.21 131.205 153.205 131.2 153.199C131.195 153.193 131.192 153.186 131.189 153.178L131.252 153.147L131.345 153.209Z" fill="white"/>
<path d="M221.088 123.335C219.789 121.598 218.568 119.805 217.422 117.956C216.278 116.111 215.172 114.237 214.179 112.305C213.18 110.376 212.247 108.414 211.379 106.419C210.501 104.431 209.743 102.389 209.028 100.31C208.982 100.176 208.981 100.032 209.026 99.8978L209.042 99.8487C209.845 97.1683 210.101 94.3579 209.796 91.5795C209.675 90.17 209.474 88.7683 209.193 87.3811C208.92 85.999 208.566 84.6338 208.131 83.2925C208.081 83.1384 208.072 82.9742 208.104 82.8156C208.472 81.1613 208.685 79.4774 208.742 77.7848C208.762 76.9651 208.704 76.1454 208.567 75.3366C208.51 74.9695 208.417 74.6086 208.289 74.2594C208.158 73.948 207.974 73.6607 207.746 73.4094C207.531 73.1673 207.267 72.9719 206.971 72.8357C206.675 72.6994 206.353 72.6254 206.026 72.6182C205.708 72.6247 205.396 72.7079 205.118 72.8606C204.839 73.0132 204.603 73.2307 204.431 73.4939C203.529 74.895 202.879 76.4378 202.508 78.0554L201.784 80.589C201.651 81.0255 201.551 81.4127 201.368 81.8968C201.185 82.3701 200.922 82.8097 200.591 83.197C199.901 83.9619 198.948 84.4476 197.915 84.5601C196.959 84.6619 195.993 84.5769 195.071 84.3101C193.302 83.7938 191.65 82.9477 190.205 81.8179C189.48 81.2601 188.829 80.6159 188.265 79.9002C187.72 79.2148 187.147 78.5474 186.568 77.8862C184.253 75.2357 181.79 72.7052 179.28 70.2258L177.393 68.3815C176.772 67.803 176.067 67.3184 175.301 66.9435C174.541 66.569 173.721 66.3292 172.877 66.2351C172.114 66.0741 171.318 66.2086 170.654 66.6106C170.414 66.8824 170.249 67.2095 170.172 67.5613C170.096 67.9132 170.111 68.2784 170.217 68.6229C170.298 69.023 170.402 69.4186 170.526 69.8079C170.676 70.1967 170.85 70.5818 171.013 70.9674C171.802 72.4961 172.748 73.9416 173.836 75.2815C176.02 77.9984 178.402 80.556 180.962 82.9343C181.088 83.0532 181.173 83.2082 181.203 83.3773C181.234 83.5463 181.21 83.7205 181.134 83.8752L181.127 83.8885C180.545 85.2523 180.324 86.7393 180.485 88.2102C180.543 88.9621 180.674 89.7068 180.877 90.434C181.067 91.166 181.365 91.8546 181.641 92.6944C182.207 94.3361 182.492 96.0585 182.486 97.7919C182.438 99.2948 182.675 100.793 183.186 102.21C183.686 103.633 184.433 104.959 185.396 106.128C185.88 106.704 186.416 107.237 186.995 107.721C187.593 108.216 188.226 108.667 188.891 109.072L197.119 114.426C197.325 114.559 197.479 114.757 197.556 114.987L197.565 115.013C199.103 119.589 200.961 124.215 202.755 128.795L208.2 142.572L213.655 156.351C215.479 160.941 217.261 165.555 219.039 170.16L219.041 170.166C219.05 170.19 219.05 170.217 219.039 170.241C219.029 170.265 219.009 170.285 218.985 170.295C218.96 170.305 218.933 170.305 218.908 170.296C218.883 170.286 218.863 170.268 218.852 170.244C216.747 165.761 214.685 161.264 212.668 156.754C210.662 152.235 208.618 147.731 206.679 143.183L200.865 129.535C198.995 124.942 197.081 120.425 195.463 115.642L195.908 116.229L187.679 110.835C186.951 110.374 186.257 109.863 185.604 109.305C183.589 107.58 182.092 105.347 181.274 102.846C180.707 101.193 180.458 99.4493 180.541 97.7058C180.559 96.1921 180.326 94.6856 179.852 93.2456C179.638 92.5396 179.296 91.7286 179.102 90.8819C178.891 90.04 178.763 89.1801 178.719 88.314C178.577 86.542 178.903 84.7641 179.664 83.1521L179.829 84.106C177.265 81.61 174.914 78.91 172.8 76.0337C171.722 74.5877 170.792 73.0394 170.025 71.4118C169.86 70.9837 169.686 70.5604 169.536 70.1255C169.407 69.6751 169.305 69.2177 169.23 68.7557C169.156 68.2693 169.167 67.7742 169.261 67.2911C169.359 66.7511 169.651 66.2638 170.083 65.9178C170.51 65.6525 170.987 65.4735 171.485 65.3912C171.983 65.309 172.493 65.3251 172.984 65.4387C173.909 65.5792 174.805 65.8635 175.638 66.2811C176.464 66.6978 177.223 67.2327 177.89 67.8684L179.77 69.7522C182.243 72.281 184.692 74.8315 187.065 77.4602L188.81 79.4659C189.356 80.1244 189.982 80.7134 190.675 81.2191C192.053 82.2449 193.629 82.9851 195.305 83.3947C196.928 83.7876 198.761 83.633 199.68 82.455C200.126 81.794 200.418 81.0443 200.536 80.2594L201.153 77.7038C201.497 75.8808 202.169 74.1327 203.136 72.5416C203.451 72.0931 203.854 71.7108 204.321 71.4167C204.831 71.1074 205.417 70.9413 206.015 70.9365C206.582 70.9337 207.143 71.0464 207.663 71.2675C208.183 71.4885 208.651 71.8132 209.037 72.221C209.414 72.615 209.72 73.0696 209.941 73.5651C210.136 74.0331 210.276 74.5212 210.358 75.0202C210.52 75.9404 210.592 76.8737 210.574 77.8074C210.533 79.6212 210.304 81.4261 209.891 83.1941L209.864 82.7176C210.31 84.1395 210.671 85.5861 210.944 87.05C211.224 88.5059 211.418 89.9765 211.526 91.4544C211.785 94.4586 211.434 97.4835 210.493 100.353L210.507 99.8918C211.123 101.916 211.781 103.951 212.572 105.946C213.345 107.944 214.19 109.917 215.106 111.862C216.024 113.804 216.963 115.741 217.996 117.632C219.027 119.524 220.12 121.384 221.259 123.223C221.273 123.246 221.277 123.272 221.271 123.298C221.266 123.323 221.25 123.346 221.228 123.36C221.206 123.375 221.179 123.38 221.153 123.376C221.127 123.371 221.103 123.357 221.088 123.335H221.088Z" fill="black"/>
<path d="M196.514 84.3285C196.452 84.2377 196.38 84.1365 196.319 84.0457C196.344 84.0583 196.373 84.0619 196.401 84.0558C196.431 84.1467 196.472 84.2377 196.514 84.3285Z" fill="white"/>
<path d="M129.489 232.402C130.157 233.611 130.58 234.937 130.735 236.304C130.935 237.716 130.83 239.153 130.426 240.521C130.215 241.271 129.843 241.968 129.334 242.564C128.825 243.16 128.192 243.641 127.478 243.975C126.792 244.249 126.054 244.376 125.315 244.348C124.575 244.319 123.85 244.135 123.188 243.808C124.439 243.67 125.641 243.255 126.705 242.594C127.566 241.905 128.183 240.966 128.469 239.912C128.808 238.741 129.032 237.542 129.139 236.33L129.489 232.402ZM150.205 242.289C150.575 243.216 150.85 244.177 151.026 245.157C151.206 246.104 151.327 247.043 151.415 247.976C151.505 248.909 151.554 249.836 151.607 250.753C151.636 251.212 151.649 251.672 151.711 252.117C151.726 252.584 151.869 253.039 152.126 253.431C151.849 253.376 151.587 253.265 151.355 253.105C151.124 252.945 150.929 252.74 150.782 252.502C150.474 252.068 150.222 251.598 150.032 251.103C149.677 250.156 149.455 249.166 149.371 248.16C149.281 247.176 149.297 246.186 149.418 245.205C149.53 244.199 149.795 243.216 150.205 242.289ZM107.902 240.355L101.913 257.955C89.5767 253.488 86.9965 241.276 86.9965 241.276C86.9965 241.276 89.6624 235.487 107.902 240.355Z" fill="black"/>
<path d="M153.381 275.885L141.545 279.768L131.081 275.885L134.855 270.145C134.855 270.145 130.395 263.315 117.351 260.536L121.854 248.479C125.099 250.695 136.22 258.159 139.144 258.159C139.144 258.159 146.005 249.886 153.381 254.276C153.381 254.276 157.498 270.145 153.381 275.885Z" fill="black"/>
<path d="M128.129 231.689C126.786 236.086 125.375 240.459 123.931 244.82C122.491 249.183 121.02 253.534 119.517 257.873C118.004 262.209 116.511 266.553 114.947 270.87C113.403 275.195 111.856 279.519 110.254 283.823C110.149 284.105 109.959 284.348 109.709 284.521C109.459 284.694 109.162 284.788 108.857 284.79L108.846 284.79L101.234 284.823C101.022 284.823 100.812 284.78 100.617 284.696C100.423 284.612 100.248 284.489 100.105 284.335L94.2914 278.071L94.2861 278.066C94.1052 277.87 93.9808 277.631 93.9255 277.373C93.8703 277.114 93.8863 276.846 93.9719 276.595C95.5026 272.136 97.0621 267.687 98.6506 263.246C100.217 258.799 101.833 254.368 103.459 249.94C105.078 245.51 106.735 241.093 108.431 236.688C110.124 232.282 111.842 227.885 113.642 223.515C112.4 228.069 111.076 232.597 109.727 237.116C108.37 241.632 107.003 246.145 105.583 250.641C104.172 255.139 102.75 259.634 101.275 264.112C99.83 268.6 98.3489 273.075 96.8315 277.539L96.5121 276.063L102.363 282.292L101.234 281.804L108.846 281.838L107.438 282.804C109.049 278.504 110.715 274.223 112.384 269.943C114.033 265.656 115.752 261.395 117.454 257.127C119.17 252.865 120.913 248.612 122.682 244.368C124.453 240.125 126.257 235.894 128.129 231.689Z" fill="black"/>
<path d="M122.026 228.377C120.691 233.101 119.167 237.756 117.575 242.385C115.996 247.02 114.304 251.613 112.59 256.198C110.841 260.77 109.067 265.333 107.181 269.855C105.307 274.381 103.365 278.882 101.231 283.313C102.564 278.588 104.087 273.934 105.679 269.304C107.259 264.67 108.951 260.077 110.667 255.493C112.419 250.922 114.193 246.359 116.08 241.837C117.954 237.311 119.895 232.809 122.026 228.377ZM225.343 274.413C225.98 280.647 226.469 286.889 227.021 293.127C227.564 299.366 228.024 305.609 228.491 311.852C228.93 318.097 229.399 324.34 229.785 330.587C230.19 336.833 230.604 343.079 230.95 349.328L230.39 348.257L239.419 355.319L237.942 355.077L247.985 351.554L246.986 353.016C246.721 346.47 246.466 339.924 246.267 333.376C246.037 326.829 245.846 320.28 245.692 313.73C245.515 307.18 245.383 300.629 245.296 294.076C245.24 287.522 245.108 280.971 245.139 274.413C245.73 280.945 246.157 287.484 246.66 294.02C247.125 300.557 247.552 307.096 247.942 313.636C248.34 320.177 248.707 326.718 249.045 333.261C249.406 339.802 249.71 346.346 250.004 352.891C250.019 353.206 249.93 353.518 249.752 353.78C249.574 354.043 249.315 354.242 249.014 354.35L249.005 354.353L238.979 357.92C238.732 358.008 238.467 358.031 238.208 357.989C237.949 357.947 237.706 357.84 237.501 357.678L228.519 350.559L228.515 350.555C228.351 350.425 228.218 350.263 228.122 350.079C228.026 349.895 227.971 349.694 227.959 349.487C227.62 343.238 227.348 336.984 227.068 330.731C226.769 324.479 226.552 318.223 226.307 311.968C226.089 305.712 225.863 299.456 225.721 293.196C225.587 286.935 225.391 280.678 225.343 274.413Z" fill="black"/>
<path d="M236.919 275.025C237.444 281.807 237.838 288.592 238.102 295.379C238.394 302.165 238.567 308.954 238.715 315.743C238.826 322.533 238.911 329.323 238.876 336.116C238.87 342.908 238.732 349.702 238.46 356.499C237.933 349.716 237.537 342.932 237.274 336.145C236.982 329.359 236.81 322.57 236.664 315.781C236.556 308.991 236.471 302.201 236.506 295.408C236.513 288.616 236.651 281.822 236.919 275.025ZM328.528 226.341C330.977 231.452 333.31 236.611 335.642 241.768C337.948 246.937 340.247 252.108 342.483 257.304C344.754 262.487 346.94 267.703 349.153 272.909L355.669 288.573C355.813 288.925 355.817 289.317 355.681 289.672C355.544 290.026 355.277 290.317 354.933 290.487L346.688 294.518L346.679 294.522C346.5 294.609 346.306 294.66 346.107 294.673C345.908 294.685 345.708 294.658 345.52 294.593L338.839 292.287L338.822 292.281C338.636 292.216 338.466 292.116 338.321 291.984C338.176 291.853 338.059 291.695 337.978 291.518C334.189 283.214 330.46 274.883 326.792 266.524C324.989 262.33 323.152 258.152 321.39 253.94C319.602 249.74 317.861 245.518 316.166 241.276C318.326 245.308 320.444 249.359 322.521 253.429C324.618 257.49 326.641 261.584 328.698 265.662C332.752 273.847 336.743 282.06 340.668 290.302L339.808 289.534L346.507 291.786L345.339 291.861L353.561 287.788L352.825 289.702L346.481 273.968C344.408 268.707 342.307 263.458 340.291 258.174C338.241 252.904 336.253 247.609 334.272 242.312C332.319 237.004 330.364 231.696 328.528 226.341Z" fill="black"/>
<path d="M320.97 236.925C323.446 241.445 325.737 246.047 327.962 250.676C330.199 255.3 332.326 259.971 334.432 264.652C336.502 269.348 338.549 274.054 340.486 278.807C342.436 283.555 344.318 288.332 346.013 293.189C343.535 288.669 341.243 284.069 339.019 279.439C336.782 274.815 334.655 270.144 332.552 265.462C330.484 260.765 328.437 256.059 326.5 251.306C324.551 246.558 322.668 241.781 320.97 236.925ZM366.048 162.512C366.386 165.824 366.69 169.126 366.96 172.416C367.232 175.712 367.53 178.998 367.72 182.297C367.88 185.597 367.975 188.918 368.388 192.204C368.811 195.488 369.471 198.739 370.363 201.931C371.265 205.117 372.19 208.285 373.214 211.411C374.257 214.531 375.434 217.591 376.743 220.592C379.388 226.549 382.602 232.34 387.586 236.843C387.605 236.86 387.617 236.884 387.62 236.909C387.622 236.934 387.615 236.959 387.6 236.979C387.585 236.999 387.562 237.013 387.537 237.018C387.512 237.023 387.486 237.019 387.464 237.006C384.555 235.205 382.011 232.887 379.964 230.171C377.902 227.466 376.15 224.545 374.739 221.461C373.382 218.378 372.254 215.203 371.365 211.959C370.448 208.741 369.746 205.467 369.263 202.159C368.727 198.867 368.297 195.573 367.729 192.298C367.445 190.661 367.144 189.023 366.828 187.387C366.541 185.746 366.253 184.103 366.018 182.453C365.61 179.146 365.394 175.82 365.37 172.49C365.307 169.156 365.465 165.822 365.843 162.508C365.845 162.495 365.849 162.482 365.856 162.471C365.862 162.459 365.871 162.449 365.882 162.44C365.892 162.432 365.905 162.426 365.918 162.422C365.931 162.419 365.944 162.418 365.958 162.419C365.981 162.423 366.003 162.433 366.019 162.45C366.036 162.467 366.046 162.489 366.048 162.512ZM351.883 162.506C352.344 165.718 352.582 168.958 352.596 172.203C352.652 175.443 352.512 178.684 352.178 181.908C351.792 185.129 351.184 188.321 350.689 191.515C350.19 194.709 349.825 197.92 349.37 201.133C348.54 207.61 346.842 213.951 344.319 219.988C342.994 223.008 341.332 225.874 339.365 228.534C337.416 231.202 335.014 233.52 332.265 235.385C332.253 235.393 332.241 235.398 332.227 235.4C332.214 235.403 332.2 235.403 332.187 235.4C332.174 235.397 332.161 235.392 332.15 235.385C332.139 235.377 332.129 235.368 332.122 235.357C332.109 235.337 332.103 235.314 332.105 235.29C332.108 235.267 332.118 235.245 332.135 235.229C336.753 230.62 339.832 224.991 342.303 219.146C343.522 216.21 344.65 213.226 345.624 210.178C346.552 207.119 347.433 204.033 348.266 200.922C349.082 197.804 349.671 194.633 350.028 191.433C350.373 188.23 350.383 184.997 350.473 181.786C350.59 178.575 350.811 175.374 351.006 172.165C351.197 168.956 351.421 165.739 351.678 162.515C351.68 162.488 351.692 162.462 351.712 162.445C351.733 162.427 351.76 162.417 351.787 162.419C351.811 162.421 351.833 162.43 351.85 162.446C351.868 162.462 351.879 162.483 351.883 162.506ZM390.975 236.825C392.509 236.911 393.986 237.43 395.228 238.321C395.926 238.838 396.414 239.584 396.604 240.424C396.764 241.274 396.654 242.151 396.288 242.937C395.617 244.334 394.658 245.578 393.473 246.592C392.376 247.594 391.183 248.49 389.911 249.267C387.275 250.597 384.512 251.672 381.664 252.475C380.982 252.732 380.267 252.892 379.579 253.129C378.888 253.361 378.191 253.572 377.488 253.766C376.786 253.963 376.087 254.171 375.39 254.395C374.686 254.59 373.974 254.757 373.264 254.939C370.421 255.696 367.509 256.177 364.571 256.374C363.103 256.528 361.626 256.476 360.151 256.536C359.413 256.566 358.674 256.545 357.94 256.472L355.732 256.315C349.876 255.706 344.164 254.14 338.832 251.679C338.807 251.668 338.788 251.647 338.779 251.622C338.77 251.597 338.771 251.569 338.783 251.544C338.793 251.523 338.811 251.507 338.832 251.496C338.853 251.486 338.878 251.484 338.901 251.489C344.505 252.774 350.193 253.669 355.925 254.168C358.768 254.414 361.622 254.516 364.476 254.475C367.328 254.363 370.193 254.224 373.05 253.853C375.918 253.524 378.736 252.854 381.441 251.858C382.109 251.59 382.775 251.318 383.433 251.03L385.355 250.061C386.601 249.407 387.804 248.676 388.956 247.872C390.081 247.035 391.197 246.168 392.245 245.272C392.766 244.832 393.253 244.356 393.703 243.846C394.151 243.379 394.533 242.854 394.84 242.288C395.127 241.788 395.267 241.22 395.244 240.646C395.172 240.067 394.906 239.527 394.488 239.112C393.474 238.169 392.261 237.456 390.937 237.024L390.929 237.021C390.906 237.012 390.887 236.996 390.875 236.974C390.863 236.953 390.86 236.927 390.865 236.904C390.871 236.88 390.885 236.859 390.905 236.844C390.925 236.83 390.95 236.823 390.975 236.825V236.825Z" fill="black"/>
<path d="M131.285 153.249C128.221 154.398 125.228 155.726 122.324 157.226C119.414 158.702 116.619 160.388 113.96 162.268C111.297 164.113 108.9 166.304 106.835 168.783C104.764 171.22 103.462 174.2 103.088 177.356C102.037 183.721 101.312 190.134 100.916 196.571C100.717 199.773 100.708 202.983 100.889 206.186C100.981 207.767 101.183 209.34 101.495 210.894C101.658 211.647 101.879 212.387 102.155 213.108C102.387 213.796 102.764 214.428 103.262 214.961C104.352 216.103 105.552 217.138 106.845 218.052C108.13 219.016 109.485 219.909 110.836 220.804C113.559 222.57 116.366 224.23 119.201 225.841C124.876 229.06 130.666 232.098 136.502 235.048C148.175 240.951 160.042 246.488 171.936 251.967C183.831 257.453 195.801 262.754 207.813 268.019C219.357 274.26 232.856 275.303 245.763 273.719C258.738 272.131 271.275 267.782 282.982 262.031C294.665 256.136 305.711 249.094 315.953 241.011L315.981 240.992C317.945 239.544 319.728 237.872 321.291 236.011C322.127 235.119 322.834 234.118 323.609 233.174C324.33 232.188 325.028 231.185 325.726 230.183C328.398 226.084 330.667 221.745 332.504 217.223C334.352 212.703 335.897 208.069 337.128 203.35C337.715 200.984 338.236 198.601 338.782 196.226L340.058 189.025L340.059 189.019C340.064 188.991 340.071 188.963 340.08 188.936C344.054 176.794 347.82 164.585 351.378 152.308C354.935 140.04 358.304 127.716 361.208 115.296C361.892 112.183 362.678 109.09 363.292 105.965L364.263 101.288C364.583 99.7288 364.831 98.1592 365.119 96.5953C365.729 93.4696 366.112 90.3231 366.55 87.1823C367.187 82.576 366.753 77.8874 365.282 73.4701C363.81 69.0528 361.338 65.022 358.053 61.6816C356.955 60.6009 355.763 59.6166 354.49 58.7398C353.216 57.898 351.852 57.1958 350.422 56.6457C348.991 56.1292 347.501 55.787 345.985 55.6269C344.46 55.4996 342.925 55.5505 341.412 55.7787C338.338 56.2679 335.378 57.2931 332.67 58.8059C331.305 59.5603 329.999 60.4145 328.764 61.3612C327.543 62.2899 326.333 63.3888 325.052 64.406C319.988 68.4869 314.618 72.187 308.989 75.4748C303.367 78.7797 297.49 81.6435 291.411 84.0399C285.307 86.4123 278.982 88.1891 272.526 89.3445C270.903 89.5819 269.295 89.9282 267.659 90.0727L262.753 90.5094C261.116 90.6223 259.47 90.5743 257.829 90.6136L255.376 90.6355C254.589 90.6176 253.801 90.6313 253.014 90.6626C246.676 90.8967 240.57 93.0739 235.551 96.8899C230.538 100.751 226.729 105.92 224.555 111.808C223.467 114.756 222.692 117.806 222.242 120.91C221.816 124.035 221.63 127.187 221.685 130.339L221.686 130.368L221.685 130.389C221.046 142.592 220.35 154.79 219.595 166.983C219.194 173.08 218.763 179.174 218.3 185.266C218.062 188.312 217.81 191.357 217.523 194.4C217.381 195.921 217.223 197.441 217.048 198.96C216.915 200.494 216.65 202.014 216.257 203.505C216.249 203.531 216.231 203.553 216.206 203.566C216.182 203.579 216.153 203.582 216.126 203.574C216.099 203.567 216.076 203.548 216.063 203.524C216.05 203.5 216.047 203.471 216.055 203.445L216.064 203.414C216.414 201.939 216.642 200.439 216.745 198.929C216.891 197.41 217.019 195.89 217.129 194.367C217.356 191.323 217.548 188.276 217.726 185.228C218.078 179.132 218.39 173.034 218.661 166.933C219.246 154.734 219.773 142.532 220.242 130.327L220.242 130.378C220.141 127.145 220.288 123.91 220.682 120.7C221.108 117.475 221.882 114.304 222.991 111.24C225.228 105.035 229.19 99.5727 234.426 95.474C239.722 91.3809 246.185 89.0166 252.912 88.7106C253.745 88.6705 254.578 88.6495 255.412 88.6616L257.824 88.6198C259.424 88.5675 261.027 88.6038 262.623 88.4804L267.403 88.0158C268.997 87.8638 270.565 87.5088 272.146 87.2671C278.46 86.1257 284.644 84.3768 290.61 82.0458C296.574 79.6819 302.34 76.8595 307.855 73.6048C313.381 70.3641 318.652 66.7187 323.622 62.6996C324.865 61.7114 326.037 60.6367 327.379 59.6081C328.702 58.5908 330.101 57.6728 331.564 56.8616C332.297 56.4564 333.048 56.0809 333.816 55.7352C334.585 55.397 335.375 55.1126 336.155 54.8003C336.952 54.5291 337.765 54.2908 338.576 54.0565C339.411 53.8944 340.227 53.6558 341.079 53.5691C342.776 53.3214 344.497 53.2734 346.206 53.4259C347.917 53.6123 349.598 54.006 351.211 54.5983C352.802 55.2165 354.319 56.0056 355.735 56.9511C357.117 57.9107 358.411 58.988 359.602 60.1706C364.332 64.9256 367.431 71.0188 368.464 77.5954C368.994 80.8455 369.034 84.1549 368.583 87.4165C368.125 90.5982 367.72 93.7909 367.091 96.9347C366.794 98.5101 366.535 100.095 366.207 101.662L365.208 106.363C364.575 109.505 363.777 112.605 363.051 115.723C360.011 128.161 356.511 140.472 352.825 152.722C349.127 164.971 345.232 177.157 341.14 189.282L341.162 189.194L339.799 196.431C339.223 198.819 338.673 201.213 338.056 203.59C336.764 208.333 335.157 212.988 333.245 217.524C331.372 222.083 329.063 226.456 326.348 230.584C325.638 231.596 324.927 232.608 324.194 233.604C323.404 234.558 322.685 235.568 321.832 236.472C320.218 238.378 318.379 240.086 316.352 241.56L316.379 241.541L312.456 244.488L310.495 245.961L308.488 247.375L304.478 250.206L300.379 252.914C294.887 256.49 289.198 259.766 283.339 262.726C271.584 268.522 259.057 273.131 245.921 274.899C242.643 275.361 239.34 275.624 236.029 275.689C232.711 275.772 229.391 275.621 226.095 275.236C222.783 274.861 219.511 274.198 216.319 273.253C214.711 272.77 213.141 272.174 211.621 271.471L207.111 269.558C195.064 264.41 183.071 259.114 171.13 253.669C159.206 248.213 147.394 242.519 135.693 236.587C129.855 233.6 124.061 230.523 118.366 227.255C115.519 225.619 112.699 223.933 109.944 222.128C108.572 221.214 107.207 220.29 105.892 219.277C104.528 218.286 103.265 217.165 102.122 215.932C101.519 215.26 101.061 214.475 100.774 213.624C100.479 212.829 100.247 212.013 100.078 211.183C99.772 209.56 99.5806 207.918 99.5048 206.269C99.36 203.012 99.4092 199.749 99.6523 196.497C100.131 190.026 100.94 183.583 102.076 177.193L102.288 175.995L102.577 174.77C102.815 173.969 103.115 173.187 103.474 172.431C104.205 170.941 105.118 169.545 106.193 168.273C108.351 165.786 110.843 163.598 113.599 161.769C116.318 159.929 119.171 158.288 122.134 156.859C125.082 155.413 128.114 154.141 131.215 153.05C131.228 153.045 131.242 153.043 131.256 153.044C131.27 153.045 131.284 153.048 131.297 153.054C131.31 153.06 131.321 153.068 131.33 153.079C131.34 153.089 131.347 153.101 131.352 153.114C131.36 153.141 131.359 153.17 131.346 153.195C131.334 153.22 131.312 153.239 131.285 153.249Z" fill="black"/>
<path d="M131.301 153.293C128.248 154.464 125.269 155.814 122.38 157.334C119.481 158.817 116.697 160.509 114.051 162.394C111.407 164.239 109.03 166.427 106.984 168.9C105.996 170.128 105.164 171.469 104.506 172.894C104.191 173.601 103.932 174.329 103.73 175.074L103.493 176.198L103.309 177.392C102.277 183.751 101.57 190.158 101.192 196.588C101.002 199.778 101.001 202.977 101.191 206.168C101.286 207.734 101.491 209.292 101.804 210.831C101.965 211.568 102.184 212.291 102.457 212.995C102.676 213.648 103.035 214.246 103.511 214.75C104.59 215.871 105.776 216.887 107.052 217.785C108.332 218.738 109.684 219.625 111.03 220.516C113.747 222.273 116.55 223.927 119.384 225.532C125.054 228.74 130.843 231.771 136.678 234.712C148.348 240.604 160.225 246.112 172.111 251.596C183.998 257.094 195.962 262.393 207.966 267.684C219.453 273.934 232.837 274.998 245.728 273.462C258.669 271.913 271.207 267.621 282.905 261.88C294.589 256.01 305.631 248.979 315.86 240.896L315.9 240.868C317.85 239.426 319.621 237.762 321.173 235.911C322.006 235.021 322.71 234.021 323.482 233.08C324.199 232.096 324.895 231.096 325.59 230.096C328.253 226.003 330.514 221.671 332.342 217.157C334.177 212.641 335.708 208.012 336.926 203.298C337.506 200.934 338.02 198.553 338.561 196.181L339.817 188.988C339.825 188.945 339.836 188.902 339.849 188.86C343.79 176.713 347.511 164.494 351.011 152.203C354.547 139.934 357.912 127.614 360.801 115.202C361.483 112.092 362.265 108.999 362.874 105.879L363.84 101.207C364.157 99.6492 364.403 98.0829 364.689 96.5214C365.295 93.3997 365.673 90.2632 366.107 87.1314C366.731 82.5923 366.3 77.9729 364.847 73.6215C363.393 69.2702 360.955 65.3004 357.715 62.0114C356.637 60.9529 355.467 59.9889 354.219 59.1302C352.975 58.3111 351.644 57.6278 350.25 57.0927C348.858 56.5926 347.41 56.2617 345.937 56.1074C344.452 55.9855 342.957 56.0371 341.485 56.261C338.471 56.7433 335.568 57.7487 332.912 59.2304C331.568 59.9724 330.282 60.8126 329.066 61.7439C328.444 62.2142 327.881 62.6886 327.256 63.2145C326.625 63.735 326.008 64.2762 325.364 64.7785C320.279 68.8729 314.888 72.5849 309.237 75.883C303.592 79.1987 297.689 82.0717 291.586 84.4752C285.452 86.8566 279.096 88.6394 272.609 89.7979C270.976 90.0343 269.36 90.3789 267.715 90.5216L262.782 90.9522C261.136 91.0627 259.48 91.0122 257.83 91.0487L255.369 91.0662C254.591 91.0472 253.813 91.0593 253.036 91.0886C246.783 91.3071 240.756 93.4434 235.797 97.1989C230.833 101.008 227.056 106.113 224.897 111.932C223.813 114.854 223.038 117.878 222.582 120.956C222.15 124.062 221.955 127.196 222.001 130.33V130.381L222 130.403C221.324 142.605 220.612 154.801 219.799 166.995C219.372 173.09 218.914 179.183 218.425 185.275C218.174 188.32 217.909 191.365 217.609 194.407C217.46 195.928 217.296 197.448 217.114 198.967C216.974 200.506 216.702 202.031 216.3 203.525C216.288 203.562 216.261 203.593 216.226 203.611C216.191 203.63 216.15 203.634 216.111 203.623C216.073 203.611 216.041 203.586 216.022 203.552C216.003 203.517 215.998 203.477 216.009 203.439L216.022 203.394C216.362 201.923 216.582 200.427 216.679 198.922C216.818 197.403 216.94 195.883 217.044 194.36C217.257 191.316 217.436 188.269 217.601 185.22C217.927 179.123 218.212 173.024 218.457 166.922C219.001 154.722 219.491 142.519 219.927 130.314L219.927 130.386C219.816 127.136 219.955 123.883 220.342 120.654C220.762 117.403 221.536 114.205 222.65 111.116C224.901 104.842 228.896 99.3157 234.18 95.1652C239.537 91.0116 246.078 88.6065 252.889 88.285C253.732 88.2428 254.576 88.2202 255.42 88.2311L257.823 88.1849C259.414 88.1298 261.008 88.1636 262.594 88.0379L267.348 87.5673C268.932 87.4135 270.491 87.0566 272.064 86.8141C278.346 85.6757 284.499 83.9329 290.435 81.611C296.375 79.2541 302.116 76.4407 307.607 73.197C313.111 69.9666 318.36 66.3332 323.311 62.3276C323.937 61.8368 324.529 61.3132 325.14 60.8075C325.746 60.2946 326.414 59.7297 327.077 59.2257C328.42 58.1932 329.839 57.2611 331.322 56.4375C332.067 56.0257 332.83 55.6438 333.61 55.292C334.393 54.9478 335.195 54.6583 335.987 54.3414C336.797 54.065 337.625 53.8217 338.452 53.5833C339.303 53.4162 340.135 53.1764 341.006 53.0873C342.744 52.8354 344.505 52.7879 346.254 52.9459C348.008 53.1381 349.731 53.5432 351.384 54.1519C353.01 54.785 354.56 55.5929 356.006 56.5611C357.413 57.5388 358.729 58.6364 359.939 59.8413C364.734 64.6684 367.872 70.8518 368.914 77.5237C369.448 80.8149 369.486 84.1656 369.027 87.4677C368.564 90.6584 368.154 93.8611 367.522 97.0089C367.222 98.5869 366.961 100.175 366.631 101.744L365.626 106.45C364.989 109.595 364.188 112.697 363.458 115.818C357.301 140.698 349.606 165.117 341.371 189.358L341.403 189.23L340.021 196.476C339.439 198.867 338.882 201.263 338.259 203.643C336.953 208.391 335.333 213.051 333.407 217.59C331.526 222.157 329.208 226.537 326.484 230.672C325.772 231.686 325.058 232.7 324.321 233.698C323.529 234.655 322.806 235.666 321.949 236.573C320.325 238.488 318.473 240.204 316.433 241.684L316.472 241.656L312.544 244.602L310.58 246.075L308.571 247.488L304.56 250.323L300.462 253.037C294.968 256.624 289.278 259.909 283.417 262.878C271.651 268.683 259.126 273.35 245.955 275.157C242.668 275.629 239.354 275.903 236.033 275.976C232.701 276.069 229.366 275.926 226.055 275.548C222.722 275.179 219.429 274.521 216.214 273.579C214.59 273.095 213.003 272.497 211.466 271.791L206.958 269.894C194.903 264.771 182.897 259.457 170.955 254.04C159.023 248.589 147.211 242.884 135.517 236.923C129.678 233.928 123.883 230.842 118.183 227.564C115.335 225.922 112.512 224.23 109.75 222.416C108.373 221.499 107.006 220.568 105.684 219.545C104.304 218.536 103.028 217.397 101.873 216.144C101.248 215.442 100.772 214.623 100.473 213.737C100.174 212.926 99.9386 212.093 99.7685 211.246C99.464 209.608 99.275 207.951 99.2028 206.287C99.0659 203.018 99.1239 199.744 99.3764 196.481C99.8729 190.003 100.7 183.554 101.856 177.157L102.071 175.958L102.369 174.715C102.613 173.903 102.919 173.111 103.286 172.346C104.028 170.844 104.955 169.437 106.044 168.156C108.222 165.663 110.733 163.472 113.508 161.644C118.997 158.016 124.944 155.112 131.2 153.006C131.238 152.993 131.279 152.996 131.316 153.013C131.352 153.03 131.38 153.06 131.394 153.097C131.408 153.134 131.407 153.175 131.39 153.211C131.374 153.248 131.344 153.276 131.306 153.291L131.301 153.293Z" fill="black"/>
<path d="M349.282 161.922L360.789 121.003C361.011 120.996 361.233 120.996 361.454 120.996C387.785 120.996 409.141 130.309 409.141 141.804C409.141 153.291 387.785 162.604 361.454 162.604C357.387 162.607 353.323 162.379 349.282 161.922ZM235.067 68.04C234.309 66.7487 233.139 65.7393 231.739 65.168C230.339 64.5967 228.787 64.4952 227.323 64.8793C229.131 62.2259 227.935 57.6136 223.688 57.6136C217.743 57.6136 217.733 66.7072 223.688 66.7072C223.86 66.6993 224.031 66.6826 224.201 66.6571C223.135 67.7137 222.451 69.0863 222.256 70.563C222.06 72.0398 222.364 73.5389 223.12 74.829L228.2 83.4887L240.148 76.6997L235.067 68.04Z" fill="black"/>
</g>
<defs>
<clipPath id="clip0_5_23">
<rect width="409" height="357" fill="white"/>
</clipPath>
</defs>
</svg>
