<svg width="110" height="35" viewBox="0 0 110 35" fill="none" xmlns="http://www.w3.org/2000/svg">
<path d="M9.936 27L0.468 0.719999H4.824L12.492 23.04H12.564L20.232 0.719999H24.588L15.12 27H9.936ZM32.9476 27.36C29.9716 27.36 27.6676 26.52 26.0356 24.84C24.4036 23.136 23.5876 20.736 23.5876 17.64C23.5876 14.544 24.4036 12.156 26.0356 10.476C27.6676 8.772 29.9716 7.92 32.9476 7.92C35.9236 7.92 38.2276 8.772 39.8596 10.476C41.4916 12.156 42.3076 14.544 42.3076 17.64C42.3076 20.736 41.4916 23.136 39.8596 24.84C38.2276 26.52 35.9236 27.36 32.9476 27.36ZM32.9476 24.12C34.7236 24.12 36.0796 23.568 37.0156 22.464C37.9516 21.36 38.4196 19.752 38.4196 17.64C38.4196 15.528 37.9516 13.92 37.0156 12.816C36.0796 11.712 34.7236 11.16 32.9476 11.16C31.1956 11.16 29.8396 11.712 28.8796 12.816C27.9436 13.92 27.4756 15.528 27.4756 17.64C27.4756 19.752 27.9436 21.36 28.8796 22.464C29.8396 23.568 31.1956 24.12 32.9476 24.12ZM54.0129 27.36C51.8529 27.36 50.2929 26.916 49.3329 26.028C48.3969 25.116 47.9289 23.64 47.9289 21.6V11.52H43.6089V8.28H47.9289V2.16H51.8529V8.28H58.3689V11.52H51.8529V20.52C51.8529 21.792 52.0689 22.68 52.5009 23.184C52.9329 23.688 53.7009 23.94 54.8049 23.94C55.3569 23.94 55.9089 23.892 56.4609 23.796C57.0369 23.7 57.5529 23.568 58.0089 23.4L58.3689 26.712C57.6009 26.952 56.8569 27.12 56.1369 27.216C55.4409 27.312 54.7329 27.36 54.0129 27.36ZM71.145 27.36C67.905 27.36 65.409 26.52 63.657 24.84C61.905 23.16 61.029 20.76 61.029 17.64C61.029 14.616 61.833 12.24 63.441 10.512C65.073 8.784 67.305 7.92 70.137 7.92C72.873 7.92 74.973 8.736 76.437 10.368C77.925 12 78.669 14.316 78.669 17.316C78.669 17.628 78.657 17.976 78.633 18.36C78.633 18.744 78.621 19.044 78.597 19.26H63.189V16.2H75.645L75.033 17.136C75.033 15.096 74.625 13.584 73.809 12.6C72.993 11.592 71.769 11.088 70.137 11.088C68.409 11.088 67.089 11.616 66.177 12.672C65.289 13.728 64.845 15.264 64.845 17.28V18.36C64.845 20.304 65.349 21.756 66.357 22.716C67.389 23.652 68.937 24.12 71.001 24.12C72.009 24.12 73.077 24.024 74.205 23.832C75.357 23.616 76.377 23.34 77.265 23.004L77.769 26.136C76.857 26.52 75.813 26.82 74.637 27.036C73.485 27.252 72.321 27.36 71.145 27.36ZM83.0756 27V0.719999H87.0356V27H83.0756ZM94.6415 34.56L97.8815 26.82L90.3935 8.316L94.5695 8.28L99.7895 22.752H99.8615L105.297 8.28H109.473L98.7455 34.56H94.6415Z" fill="black"/>
</svg>
